<?xml version="1.0" standalone="no"?><!DOCTYPE svg PUBLIC "-//W3C//DTD SVG 1.1//EN" "http://www.w3.org/Graphics/SVG/1.1/DTD/svg11.dtd"><svg class="icon" width="200px" height="200.00px" viewBox="0 0 1024 1024" version="1.1" xmlns="http://www.w3.org/2000/svg"><path d="M750.848 456.192c0-195.072-99.072-289.024-221.44-289.024s-221.44 93.952-221.44 289.024 99.072 434.944 221.44 434.944 221.44-239.872 221.44-434.944z" fill="#4A4C4B" /><path d="M750.848 456.192c0-195.072-99.072-289.024-221.44-289.024v723.968c122.368 0 221.44-239.872 221.44-434.944z" fill="#4A4C4B" /><path d="M786.432 711.68c-39.936-48.384-188.16-20.992-188.16-83.712v-57.856h-136.96V627.2c0 62.72-147.712 35.84-187.648 84.224-31.488 43.52-53.248 209.92-53.248 209.92H839.68c0 0.256-21.76-166.144-53.248-209.664z" fill="#FEE1B9" /><path d="M598.272 627.712v-57.856h-68.608V921.6H839.68s-21.76-166.4-53.248-209.92c-39.936-48.64-188.16-20.992-188.16-83.968z" fill="#FFD9AC" /><path d="M345.6 436.736c-2.304-22.784 10.24-43.264 27.904-45.824 17.664-2.304 33.792 14.336 36.352 37.12 2.304 22.784-10.24 43.264-27.904 45.824-17.92 2.304-34.048-14.336-36.352-37.12z" fill="#FEE1B9" /><path d="M714.752 435.968c3.072-23.04-8.96-43.008-26.624-45.056-17.664-2.048-34.304 15.104-37.376 37.888-3.072 23.04 8.96 43.008 26.624 45.056 17.92 2.048 34.56-15.104 37.376-37.888z" fill="#FFD9AC" /><path d="M530.176 252.416s-145.408 18.176-145.408 95.744v135.424c0 30.464 49.408 117.76 93.952 121.344 22.272 1.792 51.456 4.352 51.456 4.352s29.184-2.56 51.456-4.352c44.544-3.584 93.952-90.88 93.952-121.344V348.16c0-77.568-145.408-95.744-145.408-95.744z" fill="#FEE1B9" /><path d="M675.072 348.16v135.424c0 30.464-49.408 117.76-93.952 121.344-22.272 1.792-51.456 4.352-51.456 4.352V252.416s145.408 18.176 145.408 95.744z" fill="#FFD9AC" /><path d="M371.2 745.728V921.6h316.928v-175.872z" fill="#8399AE" /><path d="M531.712 745.728V921.6h156.416v-175.872z" fill="#546C86" /><path d="M273.408 711.68C241.92 755.2 220.16 921.6 220.16 921.6h279.808l-38.656-294.144c0 62.72-147.712 35.584-187.904 84.224z" fill="#D0D4D7" /><path d="M786.432 711.68c31.488 43.52 53.248 209.92 53.248 209.92H572.928l25.6-294.144c0.256 62.72 147.968 35.584 187.904 84.224z" fill="#B9C7D0" /><path d="M384.768 378.112s119.04-17.92 145.408-82.688V224s-178.688-0.256-145.408 154.112z" fill="#4A4C4B" /><path d="M675.584 378.112s-119.04-17.92-145.408-82.688V224s178.688-0.256 145.408 154.112z" fill="#4A4C4B" /></svg>