<?xml version="1.0" standalone="no"?><!DOCTYPE svg PUBLIC "-//W3C//DTD SVG 1.1//EN" "http://www.w3.org/Graphics/SVG/1.1/DTD/svg11.dtd"><svg class="icon" width="200px" height="170.10px" viewBox="0 0 1204 1024" version="1.1" xmlns="http://www.w3.org/2000/svg"><path d="M1070.923294 341.594353C1009.061647 144.022588 822.392471 0 602.292706 0 382.373647 0 195.704471 143.962353 133.842824 341.594353 59.090824 347.316706 0 409.178353 0 484.472471c0 79.028706 65.054118 143.36 145.106824 143.36 5.421176 0 11.264-0.361412 17.648941-1.144471l37.104941-4.457412-9.035294-35.84a416.165647 416.165647 0 0 1-12.227765-121.012706l0.240941-4.096a428.272941 428.272941 0 0 1 1.325177-17.588706l0.602353-5.180235a397.552941 397.552941 0 0 1 5.421176-35.117176l1.144471-5.722353c1.264941-5.963294 2.650353-11.926588 4.21647-17.769412v-0.060235c47.104-180.705882 213.413647-314.548706 410.804706-314.548706 197.330824 0 363.640471 133.903059 410.804706 314.548706 1.566118 5.903059 2.951529 11.866353 4.216471 17.829647l1.14447 5.722353c0.963765 4.939294 1.927529 9.878588 2.710588 14.938353l0.843295 5.300706c0.722824 4.939294 1.325176 9.878588 1.867294 14.878117l0.602353 5.180235c0.602353 5.842824 1.024 11.685647 1.325176 17.588706l0.180706 4.096a412.611765 412.611765 0 0 1 0.240941 33.551059l-0.301176 6.02353a451.222588 451.222588 0 0 1-1.084236 16.082823l-0.421647 4.457412c-1.987765 20.48-5.541647 40.899765-10.601411 60.837647l-2.590118 10.300235a418.334118 418.334118 0 0 1-237.025882 271.179294c-18.853647-11.083294-45.296941-16.865882-74.089412-14.45647-53.609412 4.577882-94.629647 35.779765-91.678118 69.75247 2.951529 33.972706 48.790588 57.825882 102.4 53.248 41.622588-3.553882 75.595294-23.190588 87.341177-47.646117 133.722353-57.524706 231.725176-168.237176 272.926117-301.357177C1145.795765 621.507765 1204.705882 559.706353 1204.705882 484.472471c0-75.294118-59.030588-137.155765-133.782588-142.878118z m-110.471529 142.878118c0-195.102118-160.647529-353.822118-358.098824-353.822118-197.451294 0-358.098824 158.72-358.098823 353.822118 0 195.162353 160.647529 353.882353 358.098823 353.882353 197.451294 0 358.098824-158.780235 358.098824-353.882353zM602.352941 772.999529c-161.008941 0-292.020706-129.445647-292.020706-288.527058 0-159.021176 131.011765-288.527059 292.020706-288.527059s292.020706 129.505882 292.020706 288.527059c0 159.081412-131.011765 288.527059-292.020706 288.527058z m186.006588-177.27247a33.310118 33.310118 0 0 0-46.561882 4.035765A182.392471 182.392471 0 0 1 602.352941 664.154353a181.790118 181.790118 0 0 1-142.45647-68.065882 33.310118 33.310118 0 0 0-46.441412-5.300706 32.406588 32.406588 0 0 0-5.360941 45.899294A247.868235 247.868235 0 0 0 602.352941 729.449412c73.547294 0 142.817882-31.924706 190.102588-87.702588a32.406588 32.406588 0 0 0-4.096-46.019765z" fill="#FF7043" /></svg>