<?xml version="1.0" standalone="no"?><!DOCTYPE svg PUBLIC "-//W3C//DTD SVG 1.1//EN" "http://www.w3.org/Graphics/SVG/1.1/DTD/svg11.dtd"><svg class="icon" width="200px" height="200.00px" viewBox="0 0 1024 1024" version="1.1" xmlns="http://www.w3.org/2000/svg"><path d="M320.942 714.866H193.409v113.401h127.532V714.866h0.001z m95.579-44.009v-61.309H302.956v-0.356c11.76-7.254 24.176-14.231 37.163-20.944 12.988-6.715 24.881-14.245 35.726-22.545 10.814-8.33 19.702-17.983 26.692-29.06 6.96-11.043 10.456-24.683 10.456-40.774 0-13.231-2.45-24.863-7.417-34.826-4.933-9.966-11.891-18.198-20.909-24.733-9.016-6.469-19.848-11.336-32.474-14.604-12.628-3.233-26.53-4.868-41.657-4.868-16.858 0-32.051 2.418-45.657 7.253-13.607 4.77-25.075 11.828-34.469 21.073-9.376 9.278-16.335 20.615-20.925 34.109-4.574 13.493-6.371 28.864-5.408 46.18h67.826c-0.507-15.389 2.107-27.836 7.76-37.359 5.636-9.475 15.648-14.212 30.089-14.212 8.414 0 15.568 2.221 21.498 6.665 5.881 4.41 8.821 12.415 8.821 23.964 0 4.574-1.175 8.674-3.446 12.268-2.304 3.593-5.195 6.846-8.658 9.737a96.714 96.714 0 0 1-11.191 7.938c-3.953 2.401-7.513 4.574-10.65 6.486a2014.258 2014.258 0 0 1-24.537 14.604 386.178 386.178 0 0 0-24.34 15.521c-7.825 5.408-15.159 11.223-22.004 17.494-6.859 6.272-12.937 12.987-18.231 20.206-6.289 8.447-10.994 17.823-14.26 28.179-3.268 10.324-4.51 21.613-3.791 33.913h217.558z m429.072-555.231h-30.467V82.382c0-42.114-33.224-76.321-74.096-76.321s-74.099 34.207-74.099 76.321v33.227h-76.044V82.382c0-42.114-33.21-76.321-74.098-76.321-40.873 0-74.098 34.207-74.098 76.321v33.227h-76.044V82.382c0-42.114-33.21-76.321-74.098-76.321-40.889 0-74.098 34.207-74.098 76.321v33.227h-38.913c-65.031 0-117.942 52.927-117.942 117.943v666.07c0 65.033 52.911 117.943 117.942 117.943h666.054c65.067 0 117.961-52.91 117.961-117.943v-666.07c0-64.983-52.893-117.926-117.96-117.926zM708.586 82.382c0-19.114 14.57-34.698 32.475-34.698 17.903 0 32.475 15.584 32.475 34.698v135.88c0 19.128-14.571 34.696-32.475 34.696-17.904 0-32.475-15.568-32.475-34.696V82.382z m-224.271 0c0-19.114 14.571-34.698 32.474-34.698 17.902 0 32.475 15.584 32.475 34.698v135.88c0 19.128-14.572 34.696-32.475 34.696-17.903 0-32.474-15.568-32.474-34.696V82.382z m-224.224 0c0-19.114 14.57-34.698 32.458-34.698 17.887 0 32.459 15.584 32.459 34.698v135.88c0 19.128-14.572 34.696-32.459 34.696-17.888 0-32.458-15.568-32.458-34.696V82.382zM894.175 899.64c0 26.79-21.792 48.582-48.583 48.582H179.539c-26.789 0-48.565-21.792-48.565-48.582V289.094h763.201V899.64zM439.522 624.139c2.777 6.143 6.748 12.153 11.908 18.05 5.194 5.881 11.812 11.157 19.848 15.846 8.055 4.688 17.774 8.495 29.226 11.37 11.435 2.893 24.831 4.313 40.234 4.313 18.052 0 34.109-2.222 48.157-6.666 14.067-4.442 25.86-10.567 35.351-18.393 9.508-7.809 16.745-17.137 21.645-27.952 4.918-10.862 7.417-22.607 7.417-35.367 0-14.635-2.173-27.41-6.501-38.225-4.313-10.83-10.195-19.685-17.659-26.514-7.481-6.858-16.188-11.989-26.154-15.354-9.997-3.35-20.518-5.082-31.577-5.082-9.376 0-18.963 1.03-28.7 3.088-9.753 2.025-18.46 5.946-26.153 11.712l-0.719-0.702 7.22-33.162h116.898v-61.356H467.506l-25.99 144.685h67.107c3.871-5.782 8.788-9.915 14.799-12.432 5.995-2.531 13.233-3.806 21.646-3.806 10.83 0 19.551 3.056 26.17 9.18 6.599 6.159 9.914 14.735 9.914 25.829 0 10.078-3.708 18.18-11.124 24.34-7.434 6.155-16.435 9.212-26.954 9.212-5.49 0-10.717-0.636-15.616-1.961-4.918-1.339-9.182-3.413-12.758-6.337-5.262-4.067-8.626-9.622-10.03-16.599H433.2c-0.506 4.085-0.245 8.937 0.721 14.605 0.962 5.637 2.823 11.551 5.601 17.678z m-75.864 204.129h127.549V714.866H363.658v113.402z m468.065-113.402H704.177v113.401h127.546V714.866zM533.976 828.268h127.516V714.866H533.976v113.402zM831.723 563.45H704.177v113.403h127.546V563.45z m0-151.463H704.177v113.435h127.546V411.987z" fill="#EF5350" /></svg>