<?xml version="1.0" standalone="no"?><!DOCTYPE svg PUBLIC "-//W3C//DTD SVG 1.1//EN" "http://www.w3.org/Graphics/SVG/1.1/DTD/svg11.dtd"><svg class="icon" width="200px" height="200.00px" viewBox="0 0 1024 1024" version="1.1" xmlns="http://www.w3.org/2000/svg"><path d="M528.825526 16.500462c69.125848 1.417915 149.40955 23.388617 224.146233 65.620946 12.913795 7.290995 18.985303 19.863772 16.52539 33.276131-2.534698 13.841124-12.578761 23.686758-26.639252 25.917332-8.131573 1.288288-15.430545-1.246409-22.409438-5.212981-40.979937-23.245031-84.63716-39.342654-130.79817-48.669782-196.4939-39.702617-398.148931 61.876733-483.764272 243.650042-34.640201 73.565059-47.927919 150.923189-40.325821 231.725398 18.2574 194.027007 164.41831 353.780756 356.476987 390.171913 233.674782 44.272451 460.201158-103.947527 512.308038-336.289149 24.136463-107.602995 9.073858-210.453682-43.338143-307.633706-5.007573-9.284252-10.162721-18.325205-7.728733-29.497019 2.913606-13.381448 13.139146-22.996746 26.812752-25.094702 12.324493-1.89853 24.914222 4.397331 31.695685 16.228247 18.544573 32.372734 33.290091 66.403691 44.19268 102.091872 85.403951 279.721122-83.846438 572.665148-368.793503 638.347916-268.988044 61.990405-539.475767-105.940784-602.972832-374.361462-63.539941-268.589193 99.189235-537.265136 366.693554-605.450693 41.697868-10.636357 84.15455-15.486384 147.918845-14.820303z m0 0" fill="#EC407A" /><path d="M472.489829 583.020315v-63.086248h-7.827449c-38.521021 0-77.041044 0.081764-115.561068-0.035897-21.31559-0.062819-35.34517-15.107475-33.308039-35.319245 1.625317-16.133519 15.206191-27.635382 33.209323-27.698201 33.949192-0.119655 67.904367-0.037891 101.85356-0.043874h8.862467c-2.417037-2.607488-3.834951-4.252748-5.374516-5.791315-42.611237-42.637162-85.266347-85.240422-127.852656-127.908495-11.707271-11.732199-13.930865-26.93839-6.109399-39.834237 9.732959-16.046769 31.046555-20.143965 45.985516-8.76076 2.411054 1.835711 4.565846 4.028394 6.718643 6.177203 42.020937 41.999001 84.045863 84.00199 125.98404 126.084749 1.662211 1.662211 2.503787 4.133093 3.729256 6.232046 0.917357-0.26723 1.82574-0.54144 2.741103-0.809668 1.44384-1.918473 2.684267-4.034377 4.357446-5.71653 42.439731-42.511524 84.975186-84.923335 127.349106-127.496682 9.067875-9.103772 19.565631-13.021485 32.000806-9.86458 23.770517 6.027634 31.434437 35.002159 14.03656 52.905579-12.733315 13.106241-25.810639 25.891407-38.738394 38.818165-29.851996 29.858976-59.69801 59.722938-89.60086 89.532057-1.655231 1.655231-3.822986 2.801928-5.759407 4.190926l1.114789 2.241542h6.668787c34.160583 0 68.335126-0.068802 102.502689 0.031908 17.447733 0.055839 29.757269 9.689086 33.15149 25.549392 3.586667 16.781652-8.050806 34.036939-24.977041 36.813939-3.410175 0.554403-6.929037 0.666081-10.39904 0.666081-37.648534 0.042876-75.302054 0.029914-112.950589 0.029914h-8.13257v63.094225h7.983001c39.391513 0 78.783026-0.10071 118.175536 0.061822 15.017734 0.062819 26.937393 10.17369 30.199993 24.90126 3.088103 13.929868-3.897771 28.769116-17.136629 34.572396-4.81413 2.109921-10.473825 3.13796-15.760593 3.167874-38.738394 0.257259-77.475792 0.144583-116.215184 0.144583h-7.67788v8.368889c0 39.176133 0.067805 78.355258-0.049856 117.523415-0.042876 13.513069-6.531184 23.437476-18.799838 28.811992-11.737185 5.1372-23.095462 3.367299-32.983973-4.913843-8.019895-6.725623-11.164834-15.708743-11.145888-26.07787 0.073787-38.520024 0.029914-77.040047 0.029913-115.561068v-8.151515h-7.12946c-39.602904 0-79.219767 0.073787-118.823668-0.049856-13.586856-0.042876-25.069774-8.375869-29.514967-20.785118-4.370409-12.198855-0.783742-25.972174 9.04893-34.453739 6.39358-5.517105 13.880012-7.634006 22.285794-7.604092 38.738394 0.117661 77.482772 0.049856 116.219172 0.049856 2.333278-0.005983 4.687495-0.005983 7.621044-0.005983z m0 0" fill="#EC407A" /></svg>