<?xml version="1.0" standalone="no"?><!DOCTYPE svg PUBLIC "-//W3C//DTD SVG 1.1//EN" "http://www.w3.org/Graphics/SVG/1.1/DTD/svg11.dtd"><svg class="icon" width="200px" height="200.00px" viewBox="0 0 1024 1024" version="1.1" xmlns="http://www.w3.org/2000/svg"><path d="M512 42.74087a489.73913 489.73913 0 1 0 489.73913 489.73913 489.73913 489.73913 0 0 0-489.73913-489.73913z m-6.322087 239.972173a66.515478 66.515478 0 0 1 66.159304 66.159305A64.77913 64.77913 0 0 1 502.784 414.052174 66.515478 66.515478 0 0 1 440.765217 351.721739a64.77913 64.77913 0 0 1 64.912696-69.008696z m242.866087 249.766957h-2.448696L692.802783 756.869565a34.459826 34.459826 0 0 1-32.189218 25.644522H350.96487a35.617391 35.617391 0 0 1-33.881044-27.558957l-42.073043-221.71826h-0.48974a58.590609 58.590609 0 0 1-58.768695-62.330435 60.104348 60.104348 0 0 1 55.296-56.05287 58.501565 58.501565 0 0 1 48.484174 96.033392L378.434783 563.778783a27.692522 27.692522 0 0 0 43.586782-9.305044l45.056-103.334956a40.915478 40.915478 0 0 1 36.774957-23.997218 41.672348 41.672348 0 0 1 36.774956 23.997218l45.412174 105.338434a27.469913 27.469913 0 0 0 42.651826 10.284522l71.234783-58.278956a56.275478 56.275478 0 0 1-12.198957-35.617392 59.258435 59.258435 0 0 1 118.51687 0 56.854261 56.854261 0 0 1-57.433044 59.748174z m0 0" fill="#EF5350" /></svg>