<?xml version="1.0" encoding="utf-8"?>
<!-- Generator: Adobe Illustrator 19.2.1, SVG Export Plug-In . SVG Version: 6.00 Build 0)  -->
<svg version="1.1" id="图层_1" xmlns="http://www.w3.org/2000/svg" xmlns:xlink="http://www.w3.org/1999/xlink" x="0px" y="0px"
	 viewBox="0 0 200 200" enable-background="new 0 0 200 200" xml:space="preserve">
<circle fill="#cccccc" cx="101.5" cy="100.5" r="95.5"/>
<path fill="#FFFFFF" d="M155.1,61.8L139,34.2c-0.5-0.4-0.9-0.9-1.4-0.9h-69c-0.5,0-0.9,0.4-1.4,0.9L51.1,61.3c0,0.9,0,1.3,0.5,1.8
	l49.2,58.6c0.9,1.3,3.3,1.3,4.7,0l49.2-58.6C155.1,62.7,155.1,62.2,155.1,61.8z M112.1,39.6l7.6,19.5H86.1l7.6-19.5H112.1
	L112.1,39.6z M71.4,39.6h15.1L79,59.1H60.1C60.1,59.1,71.4,39.6,71.4,39.6z M61.5,65.3h18l14.2,39.1C93.7,104.4,61.5,65.3,61.5,65.3
	z M103.1,109.8L86.6,65.3h33.1C119.7,65.3,103.1,109.8,103.1,109.8z M112.1,104.4l14.7-39.5h18L112.1,104.4L112.1,104.4z
	 M126.8,59.1l-7.6-19.5h15.6l10.9,19.5H126.8z"/>
<g>
	<path fill="#FFFFFF" d="M74.4,155.4c-0.3,1.2-1,4-1.3,5.6H57.5v-0.5c3.1-0.1,3.3-0.8,3.3-3.8v-14.1c0-2.8-0.3-3.4-3.5-3.6v-0.5h8.9v0.5
		c-3.3,0.2-3.6,0.8-3.6,3.6v13.6c0,3.8,0.9,3.9,4.5,3.9c2.2,0,3.9-0.4,4.7-1.3c0.5-0.6,1.3-1.9,1.9-3.5H74.4z"/>
	<path fill="#FFFFFF" d="M101.1,149.4c0,7.2-5.7,12.1-12.6,12.1c-6.6,0-11.9-4.9-11.9-11.5c0-6,4.7-12.1,12.7-12.1
		C95.3,137.9,101.1,142.4,101.1,149.4z M79.1,149c0,7,4.4,11.7,10.3,11.7c4.9,0,9.3-3.3,9.3-9.8c0-8.2-4.6-12.1-10.4-12.1
		C83.5,138.8,79.1,142,79.1,149z"/>
	<path fill="#FFFFFF" d="M128,151.4c-2.1,0.3-2.2,0.8-2.2,2.4v3.2c0,1.3,0,2.3,0.3,3.1c-2.3,0.6-5.4,1.5-8.4,1.5c-7.8,0-13.4-4.8-13.4-11.6
		c0-7.9,6.7-12,13.8-12c3.1,0,5.8,0.6,7,1c0.1,1,0.3,3.1,0.6,5.3l-0.6,0.1c-1.2-4.5-4-5.5-7.7-5.5c-6.9,0-10.5,4-10.5,10.7
		c0,5,2.9,11.2,10.8,11.2c1.9,0,3.5-0.2,4.6-0.6c1.1-0.4,1.5-0.9,1.5-2.4v-3.1c0-2.2-0.2-2.8-4.3-3.1v-0.5h8.4V151.4z"/>
	<path fill="#FFFFFF" d="M155.1,149.4c0,7.2-5.7,12.1-12.6,12.1c-6.6,0-11.9-4.9-11.9-11.5c0-6,4.7-12.1,12.7-12.1
		C149.3,137.9,155.1,142.4,155.1,149.4z M133.1,149c0,7,4.4,11.7,10.3,11.7c4.9,0,9.3-3.3,9.3-9.8c0-8.2-4.6-12.1-10.4-12.1
		C137.5,138.8,133.1,142,133.1,149z"/>
</g>
</svg>
