<?xml version="1.0" standalone="no"?><!DOCTYPE svg PUBLIC "-//W3C//DTD SVG 1.1//EN" "http://www.w3.org/Graphics/SVG/1.1/DTD/svg11.dtd"><svg class="icon" width="200px" height="200.00px" viewBox="0 0 1024 1024" version="1.1" xmlns="http://www.w3.org/2000/svg"><path d="M257.13777778 402.77333333v-109.22666666a145.63555555 145.63555555 0 0 1 291.27111111 0v109.22666666h72.81777778v-109.22666666c0-120.60444445-97.84888889-218.45333333-218.45333334-218.45333334s-218.45333333 97.84888889-218.45333333 218.45333334v109.22666666zM512 730.45333333h-72.81777778v-72.81777778l436.90666667-436.90666666 72.81777778 72.81777778-436.90666667 436.90666666z" fill="#EC407A" /><path d="M548.40888889 766.86222222H402.77333333V621.22666667l182.04444445-182.04444445H147.91111111a73.03395555 73.03395555 0 0 0-72.81777778 72.81777778v364.08888889a73.03395555 73.03395555 0 0 0 72.81777778 72.81777778h509.72444444a73.03395555 73.03395555 0 0 0 72.81777778-72.81777778V584.81777778z" fill="#EC407A" /></svg>