<?xml version="1.0" standalone="no"?><!DOCTYPE svg PUBLIC "-//W3C//DTD SVG 1.1//EN" "http://www.w3.org/Graphics/SVG/1.1/DTD/svg11.dtd"><svg class="icon" width="200px" height="200.00px" viewBox="0 0 1024 1024" version="1.1" xmlns="http://www.w3.org/2000/svg"><path d="M73.161 109.876c-10.103 0-18.292 8.334-18.292 18.615v635.643c0 10.281 8.189 18.621 18.292 18.621H390.452l108.015 123.694c9.071 8.379 20.631 7.681 27.346 0L633.822 782.755h317.296c10.097 0 18.285-8.339 18.285-18.621V128.491c0-10.281-8.188-18.615-18.285-18.615H73.161z m0-55.858h877.958c40.401 0 73.161 33.346 73.161 74.473v635.643c0 41.133-32.76 74.473-73.161 74.473H658.466l-91.643 104.95c-26.849 30.74-73.089 33.508-103.287 6.185a73.763 73.763 0 0 1-6.079-6.185l-91.644-104.95H73.161c-40.407 0-73.161-33.341-73.161-74.473V128.491c0-41.127 32.754-74.473 73.161-74.473zM464.362 202.63h95.266c11.499 0 20.814 8.189 20.814 18.292 0 0.503-0.021 1.005-0.073 1.508l-35.573 377.246c-0.893 9.483-9.914 16.785-20.743 16.785h-24.119c-10.829 0-19.843-7.302-20.741-16.785L443.619 222.43c-0.949-10.064 7.569-18.901 19.024-19.738a25.266 25.266 0 0 1 1.719-0.062z m37.721 441.264h20.816c11.493 0 20.814 8.189 20.814 18.292v43.438c0 10.104-9.321 18.292-20.814 18.292h-20.816c-11.493 0-20.809-8.188-20.809-18.292v-43.438c0.001-10.102 9.316-18.292 20.809-18.292z m0 0" fill="#1296db" /></svg>