<?xml version="1.0" encoding="utf-8"?>
<!-- Generator: Adobe Illustrator 19.2.1, SVG Export Plug-In . SVG Version: 6.00 Build 0)  -->
<svg version="1.1" id="图层_1" xmlns="http://www.w3.org/2000/svg" xmlns:xlink="http://www.w3.org/1999/xlink" x="0px" y="0px"
	 viewBox="0 0 200 200" enable-background="new 0 0 200 200" xml:space="preserve">
<path fill="#EC407A" d="M183.8,79.9l-82.4-60.6c-0.9-0.7-1.9-1-3-0.9c-1,0-2.1,0.3-3,0.9L12.9,79.9c-2.1,1.6-2.6,4.6-1,6.7
	c1.6,2.1,4.6,2.6,6.7,1L30,79.3v86.4c0,6.5,5.3,12.7,12.7,12.7h34.6c0,0,1,0,2.1-0.5c0.5-0.2,1-0.6,1.5-1.1c1.2-1.3,1.2-3,1.2-3
	v-32.2c0,0-0.3-5.5,5.4-5.5H105c3,0,5.4,2.3,5.4,5.2V174c0,0,0,1.6,1.4,3c1.2,1.4,3.4,1.4,3.4,1.4h39.2c7.4,0,12.7-6.2,12.7-12.7
	l0-86.2l11,8.1c2.1,1.6,5.1,1.1,6.7-1C186.3,84.5,185.9,81.5,183.8,79.9L183.8,79.9 M157.7,161.6L157.7,161.6"/>
</svg>
