<?xml version="1.0" encoding="utf-8"?>
<!-- Generator: Adobe Illustrator 21.0.0, SVG Export Plug-In . SVG Version: 6.00 Build 0)  -->
<svg version="1.1" id="图层_1" xmlns="http://www.w3.org/2000/svg" xmlns:xlink="http://www.w3.org/1999/xlink" x="0px" y="0px"
	 viewBox="0 0 29 9.3" style="enable-background:new 0 0 29 9.3;" xml:space="preserve">
<g>
	<path d="M2,3.1C2.6,3.2,2.9,3.4,3,3.7c0,0.1-0.1,0.1-0.1,0.2C2.6,4.1,2.5,4.4,2.5,4.9C2.6,5,2.7,5.1,2.7,5.1c0,0.1-0.1,0.1-0.2,0.2
		C2.3,5.3,2.2,5.4,2,5.4c-0.1,0-0.5,0.1-1,0.2c0,0.5,0,0.8-0.1,0.9C0.8,6.6,0.7,6.4,0.7,6c0-0.4-0.1-0.9-0.3-1.6
		C0.3,4.1,0.2,3.8,0.1,3.6C0,3.5,0,3.5,0,3.4c0.2-0.1,0.4-0.1,0.7,0.1c0.4-0.1,0.8-0.2,1.1-0.4C2,3.1,2,3.1,2,3.1z M1.9,3.6
		c-0.1-0.1-0.3,0-0.9,0.2C1,3.8,0.9,3.9,0.9,3.9l0.2,1.5L1.9,5c0-0.1,0-0.1,0-0.2C2.1,4.1,2.1,3.7,1.9,3.6z M6.4,0.7
		c0.2-0.1,0.5,0.1,1,0.4c0,0.1,0,0.2-0.1,0.3C7.2,1.7,7,2.1,6.9,2.6c0.2,0,0.4-0.1,0.7-0.2c0.3-0.1,0.6-0.1,0.7-0.1
		c0.3,0.1,0.5,0.2,0.7,0.4C9,2.9,8.9,3,8.7,3C8,3,7.4,3,6.8,3C6.5,3.6,6.3,4,6.2,4.2C6.1,4.3,6.1,4.3,6,4.3C6,4.3,6,4.3,6,4.2
		C6.1,3.9,6.2,3.5,6.4,3L5,3.3C5,3.7,5,4,5,4.2C4.9,4.4,4.8,4.3,4.7,4.1c0-0.1,0-0.4-0.1-0.8c-0.1,0-0.2,0-0.5,0.1
		C3.7,3.5,3.5,3.5,3.5,3.5C3.2,3.5,3.1,3.4,3,3.4C2.9,3.3,3,3.2,3.1,3.2c0.6,0,1-0.1,1.4-0.2C4.4,2.4,4.2,2,3.9,1.8
		C3.9,1.7,3.8,1.7,3.8,1.6c0.3-0.1,0.6-0.1,1.1,0.2c0,0.1,0,0.1,0,0.2c0,0.3,0,0.6,0,0.9l1.5-0.3C6.6,2,6.6,1.5,6.4,1
		C6.4,0.9,6.4,0.8,6.4,0.7z M8.6,4.8c0,0.1,0,0.1-0.1,0.2C8.3,5.2,8.2,5.5,8.1,5.9C8.1,6.3,8,6.7,8,7.2C8,7.6,7.9,7.9,7.9,8
		C7.7,8.5,7.5,8.8,7.3,8.9c-0.1,0-0.1-0.1-0.2-0.4C7.1,8.2,7,8,6.9,7.8C6.7,7.8,5.8,7.9,4.3,8C4.2,8.4,4.2,8.5,4.1,8.5
		C4,8.4,3.9,8.1,3.8,7.6c0-0.3-0.1-0.9-0.4-1.8C3.4,5.4,3.3,5.2,3.2,5c-0.1-0.1-0.1-0.1,0-0.2c0.3-0.1,0.5,0,0.7,0.1
		C5.8,4.6,7,4.4,7.4,4.2h0C8.1,4.4,8.4,4.6,8.6,4.8z M5.3,4.9L4,5.1l0.3,2.6l1.2-0.2V6.4C5.2,6.5,5,6.5,4.8,6.5
		c-0.2,0-0.2-0.1-0.3-0.2c-0.1-0.1,0-0.1,0.1-0.1c0.1,0,0.3-0.1,0.5-0.1c0.1,0,0.2,0,0.3,0c0-0.1,0-0.2,0-0.3C5.4,5.3,5.4,5,5.3,4.9
		z M7.4,4.8C7.3,4.6,6.7,4.6,5.7,4.9C5.8,5,5.9,5,5.9,5.1c0,0,0,0.1,0,0.1C5.9,5.4,5.9,5.7,5.9,6C6.1,6,6.3,5.9,6.4,5.8
		c0.1,0,0.1,0,0.2,0C6.7,5.8,6.9,5.8,7,6C7,6,6.9,6.1,6.7,6.2c0,0-0.1,0-0.2,0C6.3,6.3,6.1,6.3,5.9,6.4v1.2c0.1,0,0.2,0,0.4,0
		c0.4-0.1,0.7,0,0.9,0.2c0.2-0.1,0.3-0.5,0.4-1.4C7.6,5.5,7.6,5,7.4,4.8z"/>
	<path d="M17.5,2.7c0.8,0.4,1.2,0.7,1.2,1c0,0-0.1,0.1-0.2,0.1c-0.3,0-0.7,0.2-1.2,0.4C17.1,4.2,17,4.3,17,4.3c-0.1,0,0-0.1,0-0.2
		c0.2-0.4,0.3-0.6,0.3-0.7c-0.2-0.1-1.3,0-3.3,0.4C12.6,4,11.7,4.1,11.6,4c-0.2,0.9-0.4,1.3-0.7,1.4c-0.2-0.2-0.3-0.4-0.3-0.7
		C10.9,4.3,11,3.9,11,3.5c0-0.1,0-0.2,0-0.2c0.1,0,0.3,0.1,0.6,0.5C14.9,3.4,16.8,3,17.5,2.7C17.5,2.7,17.5,2.7,17.5,2.7z M12.5,0.5
		c0.1-0.1,0.2-0.1,0.4,0c0.3,0.1,0.4,0.2,0.4,0.3c0,0.1-0.1,0.2-0.2,0.3C13.1,1.1,13,1.2,13,1.2c0.2-0.1,0.4-0.1,0.7-0.2
		C13.9,1,14,0.9,14.1,0.9c0.3,0,0.5,0,0.5,0.2c0,0.1-0.2,0.2-0.5,0.3c0,0-0.1,0-0.1,0c-0.4,0.1-0.7,0.1-1.1-0.1
		c-0.4,0.6-0.8,1.1-1.1,1.3c-0.2,0.1-0.2,0.2-0.3,0.2c-0.1,0,0-0.1,0.1-0.3c0.7-1,1-1.7,0.8-2C12.4,0.5,12.4,0.5,12.5,0.5z
		 M12.7,1.9c0.2-0.1,0.4-0.1,0.7,0.1c0.3,0.3,0.3,0.5,0.1,0.6C13.2,2.6,12.9,2.4,12.7,1.9z M15.4,4.2c0.4,0.1,0.6,0.2,0.8,0.5
		c0,0.1,0,0.1-0.1,0.2c-0.2,0.2-0.3,0.4-0.4,0.6l0,0c0.1,0.1,0.2,0.2,0.1,0.2c-0.1,0.1-0.8,0.2-2.2,0.3v0.9c0.8-0.1,1.4-0.2,1.9-0.4
		c0.1-0.1,0.2-0.1,0.3-0.1c0.5,0.1,0.9,0.3,1,0.6c0,0.1-0.1,0.2-0.2,0.2c-0.2,0.2-0.3,0.3-0.5,0.5c0,0,0,0.1,0.1,0.1
		c0.1,0.2,0.2,0.2,0.1,0.2c-0.1,0.1-0.2,0.1-0.6,0.1c-0.7,0.1-1.4,0.1-2.1,0.3c-0.1,0.5-0.1,0.7-0.2,0.7C13.2,9.3,13,9,12.9,8.6
		c0-0.1,0-0.2,0-0.3c0.1-0.3,0.2-0.9,0.2-1.7c0-0.8-0.1-1.4-0.2-1.8c-0.1-0.1-0.1-0.2,0-0.2c0.1-0.1,0.1-0.1,0.2,0
		c0.2,0.1,0.3,0.2,0.4,0.2c0.9-0.1,1.4-0.3,1.7-0.5C15.3,4.2,15.3,4.2,15.4,4.2z M15.2,4.8c-0.1-0.1-0.4,0-0.8,0s-0.8,0.1-0.9,0.1
		l0,1c1-0.1,1.5-0.2,1.6-0.3C15.3,5.3,15.3,5,15.2,4.8z M15.5,7.1c-0.1-0.1-0.4,0-0.9,0.1c-0.5,0.1-0.8,0.1-1,0.1v1
		c0.8-0.1,1.4-0.2,1.8-0.3C15.5,7.8,15.5,7.5,15.5,7.1z M13.9,2.6c0.2-0.1,0.5-0.1,0.8,0c0.4,0.3,0.4,0.5,0.1,0.6
		C14.4,3.1,14.1,2.9,13.9,2.6z M15.1,0.1C15.4-0.1,15.6,0,16,0.2c0,0.1-0.1,0.2-0.2,0.5c-0.1,0.1-0.1,0.1-0.1,0.2
		c0.4-0.1,0.8-0.1,1.2-0.2c0.2-0.1,0.3-0.1,0.4-0.1c0.2,0,0.3,0.1,0.4,0.2c0,0.1-0.2,0.2-0.4,0.2c-0.8,0.2-1.3,0.2-1.6,0
		c-0.4,0.5-0.7,0.9-0.9,1.1c0,0-0.1,0-0.1,0c-0.2,0.1-0.3,0.1-0.1-0.1C15,1,15.2,0.4,15.1,0.1C15.1,0.1,15.1,0.1,15.1,0.1z
		 M15.4,1.6c0.3-0.1,0.6-0.1,1,0.2c0.3,0.3,0.3,0.5,0,0.5C16,2.2,15.7,2,15.4,1.6z"/>
	<path d="M28.2,2c0,0.1-0.1,0.1-0.3,0.1c-0.4,0.1-0.7,0.2-1,0.3c0,0-0.1,0-0.1,0c-0.2,0.2-0.3,0.1-0.1-0.2C26.9,1.9,27,1.7,27,1.7
		c-0.3-0.1-1.2,0-2.7,0.3c-1,0.2-1.6,0.2-1.8,0.2c-0.2,0-0.3,0-0.4-0.1c-0.3,0.8-0.6,1.3-0.9,1.3c-0.2-0.1-0.2-0.3-0.1-0.7
		c0.2-0.2,0.4-0.5,0.6-1c0.1-0.2,0.1-0.3,0.2-0.3c0.1,0,0.2,0.2,0.3,0.5c2.1-0.3,3.6-0.5,4.7-0.8l0.2,0C27.8,1.3,28.2,1.7,28.2,2z
		 M25.4,2.6c0.3,0,0.4,0.1,0.5,0.2c0,0.1-0.1,0.2-0.3,0.3c-0.7,0.2-1.2,0.3-1.4,0.3c0.2,0.2,0.3,0.4,0.3,0.5c0,0-0.1,0.1-0.2,0.1
		C24,4,23.7,4.1,23.5,4.3c0.1,0.1,0.1,0.1,0.3,0.2C24,4.7,24.2,4.9,24.3,5c0.2,0.1,0.4,0.1,0.5,0.2c0.7-0.7,1-1.1,1.1-1.4
		c0-0.1,0-0.1,0-0.2c0.5,0.2,0.7,0.4,0.7,0.6l0,0c-0.4,0.2-0.9,0.5-1.6,1c1.1,0.9,2.3,1.4,3.4,1.5c0.3,0.1,0.5,0.1,0.6,0.2
		C29,6.9,28.9,7,28.7,7c-1,0.2-1.6,0.2-1.8,0.2c-0.1,0-0.4-0.3-0.9-0.7c-0.8-0.8-1.4-1.2-1.6-1.3c0.6,1.1,0.7,2.1,0.4,3.1
		c-0.2,0.5-0.4,0.7-0.7,0.7c0,0-0.1,0-0.1-0.1c-0.2-0.2-0.4-0.4-0.6-0.6c-0.2-0.1-0.3-0.1-0.3-0.2c0-0.1,0.1-0.1,0.4,0
		c0.3,0.1,0.6,0,0.7,0C24.5,7.7,24.5,7,24.3,6c-0.7,1-1.5,1.6-2.7,1.8c-0.3,0.1-0.5,0.1-0.5,0.1c0-0.1,0.1-0.2,0.4-0.3
		c1.1-0.6,2-1.3,2.6-2.1c-0.1-0.2-0.2-0.4-0.3-0.6c-0.3,0.6-0.8,1-1.7,1.4c-0.3,0.1-0.4,0.1-0.5,0.1c0,0,0.1-0.1,0.3-0.3
		c0.9-0.6,1.4-1.1,1.6-1.6c-0.1-0.1-0.1-0.2-0.2-0.2c-0.5,0.3-0.9,0.6-1.3,0.7c-0.3,0.1-0.5,0.1-0.6,0c-0.1-0.1,0.1-0.1,0.4-0.3
		c1-0.5,1.7-0.9,2.1-1.4c-0.2,0.1-0.4,0.1-0.6,0c-0.3,0-0.6-0.1-0.7-0.2c-0.1-0.1,0.1-0.1,0.3-0.2c0.9-0.1,1.5-0.2,2-0.4
		C25.2,2.7,25.3,2.6,25.4,2.6z M24.6,0.4c0.4,0.4,0.4,0.7,0,0.9c-0.3-0.1-0.7-0.4-1.1-0.9C23.9,0.3,24.2,0.3,24.6,0.4z"/>
</g>
</svg>
