<?xml version="1.0" encoding="utf-8"?>
<!-- Generator: Adobe Illustrator 21.0.0, SVG Export Plug-In . SVG Version: 6.00 Build 0)  -->
<svg version="1.1" id="图层_1" xmlns="http://www.w3.org/2000/svg" xmlns:xlink="http://www.w3.org/1999/xlink" x="0px" y="0px"
	 viewBox="0 0 33.1 32" style="enable-background:new 0 0 33.1 32;" xml:space="preserve">

<path fill="#CC9760" d="M25.6,20.1c3.2,0.7,6.4-1.6,7.3-5.2c0.8-3.6-1-7.1-4.2-7.9l0,0c-3.2-0.7-6.4,1.6-7.3,5.2
	C20.5,15.8,22.4,19.3,25.6,20.1C25.6,20.1,25.6,20.1,25.6,20.1z"/>
<path fill="#FF6E83" d="M31.2,19.2c0.1-0.2,0.2-0.3,0.3-0.5c0.1-0.1,0.1-0.2,0.2-0.2s0.1-0.2,0.1-0.2S32,18,32,17.9
	c0-0.1,0.1-0.1,0.1-0.2c0.1-0.2,0.1-0.3,0.2-0.5l0.1-0.2c0.1-0.2,0.1-0.4,0.2-0.6s0.1-0.4,0.1-0.6c0.5-3.4-1.3-6.6-4.3-7.3l-0.2,0
	c0.2-0.4,0.4-0.9,0.4-1.4c0.2-2.7-2.5-5.2-6.2-5.5c-2.3-0.2-4.4,0.5-5.7,1.7c-1.4-1.5-4.2-2.7-6.7-1.6C7.1,2.9,7.7,6.9,4.5,8
	C4.3,8.1,4.6,8.4,4.7,8.6c-2.1,0.6-3.9,2.5-4.5,5.1c-0.2,1-0.3,1.9-0.1,2.9c0,0,0,0.1,0,0.1c0,0.1,0,0.2,0.1,0.3c0,0.1,0,0.1,0,0.2
	s0,0.2,0.1,0.2s0,0.1,0.1,0.2c0,0.1,0,0.1,0.1,0.2c0,0.1,0.1,0.2,0.1,0.2c0,0,0,0.1,0,0.1c0.3,0.8,0.8,1.6,1.4,2.2
	c0.6,0.6,1,1.4,1,2.3v2.9c0.1,2.9,2.1,5.3,4.9,5.8c2.8,0.5,5.6,0.8,8.5,0.8c2.8,0,5.5-0.2,8.2-0.8c2.8-0.5,4.9-3,5-5.9v-2.4
	c0-1.2,0.5-2.4,1.3-3.4c0.1-0.1,0.2-0.2,0.2-0.3L31.2,19.2z"/>
<path fill="#FCF0E6" d="M31.6,17.7c0.1-0.2,0.2-0.3,0.3-0.5c0.1-0.1,0.1-0.2,0.2-0.2s0.1-0.2,0.1-0.2s0.1-0.2,0.2-0.4l0.1-0.2
	c0.1-0.2,0.1-0.3,0.2-0.5l0.1-0.2c0.1-0.2,0.1-0.4,0.2-0.6s0.1-0.4,0.1-0.6c0.5-3.4-1.3-6.6-4.3-7.3l-0.2,0c0.2-0.4,0.4-0.9,0.4-1.4
	c0.2-2.7-2.5-5.1-6.2-5.5c-2.3-0.2-4.4,0.5-5.7,1.7c-1.4-1.5-4-2.2-6.7-1.6c-3.6,0.8-6,3.7-5.4,6.3C4.9,6.8,5,7,5.1,7.2
	c-2.1,0.6-3.9,2.5-4.5,5.1c-0.2,1-0.3,1.9-0.1,2.9c0,0,0,0.1,0,0.1c0,0.1,0,0.2,0.1,0.3c0,0.1,0,0.1,0,0.2s0,0.2,0.1,0.2
	s0,0.1,0.1,0.2s0,0.1,0.1,0.2s0.1,0.2,0.1,0.2c0,0,0,0.1,0,0.1c0.3,0.8,0.8,1.6,1.4,2.2c0.6,0.6,1,1.4,1,2.3v2.9
	c0.1,2.9,2.1,5.3,4.9,5.8c2.8,0.5,5.6,0.8,8.5,0.8c2.8,0,5.5-0.2,8.2-0.7c2.8-0.5,4.9-3,5-5.9v-2.4c0-1.2,0.5-2.4,1.3-3.4
	c0.1-0.1,0.2-0.2,0.2-0.3L31.6,17.7z"/>
<path fill="#F7999F" d="M7.1,6.3c0-1.3,0.7-2.9,2.2-3.7C11,1.8,12.9,2.3,14,3.2c2.6,2.2,1.9,7.7-0.3,8.7S7,9.6,7.1,6.3z M24.7,21.4
	c-0.6,1.8-4.6,1.8-8,1.9s-7.1,0.1-7.8-1.5c-0.9-2.1,3.1-7.4,7.9-7.4C21.4,14.3,25.5,19.3,24.7,21.4z M2.8,15.3
	c-0.5-1.1-0.5-2.8,0.6-3.9s2.9-0.9,3.9-0.3c2.2,1.2,2.8,4.7,1.3,6S3.8,17.5,2.8,15.3z M26.9,11c1-0.5,2.5-0.4,3.4,0.6
	c0.8,0.9,0.7,2.1,0.3,2.9c-0.9,1.9-3.8,2.6-5,1.5S25.1,11.9,26.9,11z M19.8,3.3c1.3-0.9,3.5-1.4,5-0.2c1.3,1,1.6,2.7,1.4,3.8
	c-0.4,3.2-4.8,5.8-6.8,4.6S17.2,5.3,19.8,3.3z"/>
<path fill="#F7999F" d="M23.5,25c0,1.1,0.9,2,2,2s2-0.9,2-2s-0.9-2-2-2S23.5,23.9,23.5,25z"/>
<path fill="#FFFFFF" d="M25.6,25c0,0.5,0.4,0.9,0.9,0.9c0.5,0,0.9-0.4,0.9-0.9c0-0.5-0.4-0.9-0.9-0.9C26,24.1,25.6,24.5,25.6,25
	C25.6,25,25.6,25,25.6,25z"/>
<path fill="#FFFFFF" d="M27.2,12.1c0,0.5,0.4,0.9,0.9,0.9c0.5,0,0.9-0.4,0.9-0.9l0,0c0-0.5-0.4-0.9-0.9-0.9
	C27.6,11.2,27.2,11.6,27.2,12.1C27.2,12.1,27.2,12.1,27.2,12.1z"/>
<path fill="#FFFFFF" d="M20.8,4c0,0.5,0.4,0.9,0.9,0.9c0.5,0,0.9-0.4,0.9-0.9c0,0,0,0,0,0c0-0.5-0.4-0.9-0.9-0.9
	C21.2,3.1,20.8,3.5,20.8,4C20.8,4,20.8,4,20.8,4z"/>
<path fill="#FFFFFF" d="M7.9,4.8c0,0.5,0.4,0.9,0.9,0.9s0.9-0.4,0.9-0.9S9.3,4,8.8,4C8.3,4,7.9,4.4,7.9,4.8C7.9,4.8,7.9,4.8,7.9,4.8z"
	/>
<path fill="#FFFFFF" d="M3.1,13.9c0,0.5,0.4,0.9,0.9,0.9s0.9-0.4,0.9-0.9S4.5,13,4,13S3.1,13.4,3.1,13.9z"/>
</svg>
