<?xml version="1.0" encoding="utf-8"?>
<!-- Generator: Adobe Illustrator 19.2.1, SVG Export Plug-In . SVG Version: 6.00 Build 0)  -->
<svg version="1.1" id="图层_1" xmlns="http://www.w3.org/2000/svg" xmlns:xlink="http://www.w3.org/1999/xlink" x="0px" y="0px"
	 viewBox="0 0 1398 1398" enable-background="new 0 0 1398 1398" xml:space="preserve">
<linearGradient id="SVGID_1_" gradientUnits="userSpaceOnUse" x1="26.4367" y1="706.4211" x2="1382.1655" y2="706.4211">
	<stop  offset="0" style="stop-color:#F48FB1"/>
	<stop  offset="1" style="stop-color:#EC407A"/>
	<stop  offset="1" style="stop-color:#000000"/>
</linearGradient>
<linearGradient id="SVGID_2_" gradientUnits="userSpaceOnUse" x1="25.9367" y1="706.4211" x2="1382.6655" y2="706.4211">
	<stop  offset="0" style="stop-color:#EC407A"/>
	<stop  offset="0.9679" style="stop-color:#F48FB1"/>
	<stop  offset="1" style="stop-color:#000000"/>
</linearGradient>
<circle fill="url(#SVGID_1_)" stroke="url(#SVGID_2_)" stroke-miterlimit="10" cx="704.3" cy="706.4" r="677.9"/>
<g>
	<g>
		<defs>
			<rect id="SVGID_3_" x="230" y="255" width="1037.9" height="820.7"/>
		</defs>
		<clipPath id="SVGID_4_">
			<use xlink:href="#SVGID_3_"  overflow="visible"/>
		</clipPath>
		<path clip-path="url(#SVGID_4_)" fill="#FFFFFF" d="M1033.5,638.1c-8.2,45.1-5.3,86.5-24.6,128.7c-15.4,34-53.9,52-84.3,59.5
			c-36.7,9.1-79.4,4.4-100.9-18.4c-51.3-54.3-30.8-120-44.3-185.9c24.6,5.1,132.5-4.2,86.8-36.7c-45.7-32.5-90.2-47.1-133.6-81.4
			c-10.2-20.6-21.6-40.6-34.3-59.8c-73.8-94.6-159-171.3-280.4-157.4c-59.5,6.7-57.4,2.1-97.2,56.6
			C235.6,459.1,208,592.7,257.7,743.6c9.8,29.9,43.3,86.8,62.4,117.8c25.6,73,51,144.9,106.6,197.5c55.6,52.6,39.9-40.8,27.1-69.4
			c116.7,59.9,213.9,92.5,350.1,79.9c69-6.4,164.6-50.6,215.7-91.8c40.4-32.8,60.3-66.7,98.4-83c50.2-21.6,85.9-14.8,136-16.4
			c52.2-16.9-69-82-88.7-93.9c0,0,5,3.5-4.6-3c-9.6-6.6-36.7-30.8-40.4-45.3c0,0,1.1,5.9-3.7-8.2
			C1111.7,713.8,1041.7,593.1,1033.5,638.1L1033.5,638.1z M1033.5,638.1"/>
		<path clip-path="url(#SVGID_4_)" fill="#FFFFFF" d="M1030.3,608.9c-8.2,45.1-5.3,86.5-24.6,128.7c-15.4,34-53.9,52-84.3,59.5
			c-36.7,9.1-79.5,4.4-100.9-18.4c-51.3-54.3-30.9-120-44.3-185.9c24.6,5.1,132.5-4.2,86.8-36.7c-45.7-32.5-90.2-47.1-133.7-81.4
			c-10.2-20.7-21.6-40.8-34.3-60.1c-73.6-94.5-158.8-171.3-280.2-157.4c-59.5,6.7-57.4,2.1-97.2,56.6
			c-85.3,116.1-112.9,249.8-63.2,401c9.8,29.9,43.3,86.8,62.3,117.8c25.5,73,51,144.9,106.6,197.5c55.6,52.6,40.1-40.5,27.2-69.4
			c116.8,59.6,213.9,92.2,350,79.5c68.9-6.4,164.6-50.6,215.6-91.8c40.5-32.8,60.4-66.7,98.4-83c50.2-21.6,85.9-14.8,135.9-16.4
			c52.3-16.9-69-82-88.7-93.9c0,0,5.1,3.5-4.5-3c-9.6-6.6-39.4-39.4-44.1-53.1C1108.4,685.2,1038.3,563.9,1030.3,608.9L1030.3,608.9
			z M1030.3,608.9"/>
	</g>
	<path fill="#FFFFFF" d="M368.1,324.6c0,8,4.3,15.3,11.2,19.3c6.9,4,15.4,4,22.3,0c6.9-4,11.2-11.3,11.1-19.3
		c0-8-4.3-15.3-11.1-19.3c-6.9-4-15.4-4-22.3,0C372.3,309.3,368.1,316.6,368.1,324.6L368.1,324.6z M368.1,324.6"/>
	<circle fill="#EC407A" stroke="#000000" stroke-miterlimit="10" cx="412.7" cy="362.7" r="32.3"/>
</g>
</svg>
