<?xml version="1.0" standalone="no"?><!DOCTYPE svg PUBLIC "-//W3C//DTD SVG 1.1//EN" "http://www.w3.org/Graphics/SVG/1.1/DTD/svg11.dtd"><svg class="icon" width="200px" height="200.00px" viewBox="0 0 1024 1024" version="1.1" xmlns="http://www.w3.org/2000/svg"><path d="M948.337778 87.779556a47.559111 47.559111 0 0 0-24.462222-12.686223L687.217778 56.035556a47.729778 47.729778 0 0 0-6.257778 95.175111l124.586667 12.686222-161.564445 164.977778a409.258667 409.258667 0 0 0-155.477333-82.488889 353.621333 353.621333 0 0 0-422.627556 273.066666 364.885333 364.885333 0 0 0 267.377778 438.044445 356.579556 356.579556 0 0 0 428.600889-273.066667 363.633778 363.633778 0 0 0-49.493333-279.153778l149.048889-158.663111-6.257778 114.232889a48.810667 48.810667 0 0 0 43.804444 50.744889 48.014222 48.014222 0 0 0 49.493334-44.430222l18.773333-241.095111a45.511111 45.511111 0 0 0-18.773333-38.058667z m-291.84 571.050666a251.619556 251.619556 0 0 1-304.696889 190.407111 257.137778 257.137778 0 0 1-186.481778-310.954666A251.335111 251.335111 0 0 1 469.902222 347.932444a265.784889 265.784889 0 0 1 186.595556 310.897778z m0 0" fill="#16A9FA" /></svg>