<?xml version="1.0" encoding="utf-8"?>
<!-- Generator: Adobe Illustrator 19.2.1, SVG Export Plug-In . SVG Version: 6.00 Build 0)  -->
<svg version="1.1" id="图层_1" xmlns="http://www.w3.org/2000/svg" xmlns:xlink="http://www.w3.org/1999/xlink" x="0px" y="0px"
	 viewBox="0 0 200 200" enable-background="new 0 0 200 200" xml:space="preserve">
<path fill="#7B808B" d="M155.5,72.3h14.2c1.7,0,3-1.4,3-3V41.9c0-0.3-0.1-0.5-0.3-0.7c-2.5-2.5-5.6-0.7-5.6,1.7v22.5
	c0,0.6-0.5,1-1,1h-11.3c-0.3,0-0.5,0.1-0.7,0.3C151.3,69.3,153,72.3,155.5,72.3z"/>
<path fill="#7B808B" d="M141,69.5c0,1.6,1.3,2.9,2.9,2.9c1.6,0,2.9-1.3,2.9-2.9l0,0c0-1.6-1.3-2.9-2.9-2.9S141,67.8,141,69.5
	L141,69.5z"/>
<path fill="#EC407A" d="M76.4,7.4H9v67.4c0,10.8,8.7,19.5,19.5,19.5h67.4V27C95.9,16.2,87.2,7.4,76.4,7.4z M107.8,27v67.4h67.4
	c10.8,0,19.5-8.7,19.5-19.5V7.4h-67.4C116.6,7.4,107.8,16.2,107.8,27z M9,125.2v67.4h67.4c10.8,0,19.5-8.7,19.5-19.5v-67.4H28.5
	C17.8,105.7,9,114.4,9,125.2z M175.2,105.7h-67.4v67.4c0,10.8,8.7,19.5,19.5,19.5h67.4v-67.4C194.8,114.4,186,105.7,175.2,105.7z"/>
</svg>
