<?xml version="1.0" standalone="no"?><!DOCTYPE svg PUBLIC "-//W3C//DTD SVG 1.1//EN" "http://www.w3.org/Graphics/SVG/1.1/DTD/svg11.dtd"><svg class="icon" width="200px" height="200.00px" viewBox="0 0 1024 1024" version="1.1" xmlns="http://www.w3.org/2000/svg"><path d="M401.239 543.541H205.716v55.864h195.523V543.54zM205.716 739.063h195.523v-55.862H205.716v55.862zM736.419 515.61c-123.21 0-223.452 100.242-223.452 223.453S613.21 962.518 736.419 962.518c123.21 0 223.452-100.244 223.452-223.455S859.63 515.61 736.419 515.61z m0 391.043c-92.416 0-167.59-75.176-167.59-167.59s75.175-167.59 167.59-167.59c92.413 0 167.59 75.177 167.59 167.59s-75.177 167.59-167.59 167.59zM149.852 822.86c-7.444 0-14.455-2.92-19.748-8.183-5.265-5.292-8.183-12.302-8.183-19.75v-335.18h646.26c18.125 2.592 35.571 7.278 52.034 13.966V264.226c0-22.395-8.729-43.44-24.548-59.247-15.823-15.833-36.88-24.548-59.246-24.548h-55.863V68.703h-55.864V180.43H289.512V68.703H233.65V180.43h-83.797c-22.365 0-43.423 8.715-59.245 24.535-15.82 15.821-24.549 36.866-24.549 59.26v530.703c0 22.367 8.729 43.426 24.55 59.245 15.821 15.822 36.88 24.551 59.244 24.551h354.085a222.782 222.782 0 0 1-32.868-55.864H149.852z m-27.93-502.77v-55.862c0-7.461 2.891-14.47 8.182-19.748 5.293-5.28 12.303-8.184 19.748-8.184h83.797v83.795h55.863v-83.795h335.181v83.795h55.864v-83.795h55.863c7.445 0 14.456 2.904 19.75 8.196 5.29 5.265 8.18 12.276 8.18 19.736V403.885H121.922v-83.796zM764.35 627.337h-55.863v139.659h139.657v-55.864H764.35v-83.795z" fill="#FF7043" /></svg>