<?xml version="1.0" encoding="utf-8"?>
<!-- Generator: Adobe Illustrator 19.2.1, SVG Export Plug-In . SVG Version: 6.00 Build 0)  -->
<svg version="1.1" id="图层_1" xmlns="http://www.w3.org/2000/svg" xmlns:xlink="http://www.w3.org/1999/xlink" x="0px" y="0px"
	 viewBox="0 0 326.7 158" enable-background="new 0 0 326.7 158" xml:space="preserve">
<g>
	<g>
		<path fill="#DC4174" d="M12.6,126.8c-0.1-0.7,0.3-1.1,1-1.3c0.5-0.2,0.7,0,0.6,0.5c-0.2,0.5-0.3,1-0.3,1.7c0,0.8,0.2,1.8,0.6,2.9
			c0.5,1.6,1.3,3.1,2.4,4.7c0.7,1,1.6,1.7,2.5,1.9c0.2,0,0.3,0,0.5-0.1c0.2-0.3,0.3-0.9,0.3-1.6c0-0.8,0-1.6-0.1-2.4
			c-0.2-1.2-0.5-2.4-0.7-3.7c0-0.5,0-0.8,0.1-0.8c0.2,0.3,0.3,0.7,0.5,1.2c0.6,2.1,1.2,3.9,1.8,5.2c0.3,1,0.3,2,0,2.9
			c-0.2,0.5-1,0.7-2.3,0.5c-1-0.1-1.9-0.5-2.6-1.3c-1.3-1.5-2.3-3.5-3-6.2c-0.2-0.3-0.3-0.4-0.4-0.4c-0.1,0-0.2,0.1-0.2,0.4
			c-0.2,1.6-0.4,2.9-0.7,3.9c-0.1,0.3-0.3,0.5-0.8,0.6c-0.5,0.1-1.1,0.1-1.6,0c-0.2-0.2-0.1-0.5,0.4-0.7c0.2-0.2,0.5-0.5,0.6-1
			C11.8,130.5,12.3,128.3,12.6,126.8z M6.9,124.2c-0.6-0.2-0.8-0.3-0.8-0.4c0.1-0.1,0.4-0.1,0.9-0.3c0.5-0.1,0.8-0.3,1.1-0.6
			c0.4-0.3,0.8-0.6,1.1-0.8c0.7-0.2,1.3-0.1,1.6,0.3c0.1,0.3,0,0.6-0.3,0.8c-0.6,0.3-1,0.9-1.3,1.6c0,0.5-0.1,0.7-0.1,0.8
			c-0.2,0.1-0.3,0-0.3-0.4c0-0.7-0.4-1.1-1.2-1C7.4,124.3,7.2,124.3,6.9,124.2z M12.7,117c0.3-0.9,1-1.3,2.2-1.2
			c0.6,0.1,0.9,0.3,1.2,0.7c0.2,0.4,0.8,1.1,1.6,2c2.7,3.2,5.5,6,8.3,8.6c0.4,0.4,0.7,0.8,1,1.2c0.2,0.3,0.4,0.3,0.7-0.1
			c0.8-1.2,1.6-2.3,2.5-3.1c0.9-1,1.9-1.7,2.8-2.1c0.5-0.1,1-0.2,1.4-0.2c0.6,0.2,0.8,0.4,0.6,0.7c-0.1,0.2-0.3,0.3-0.7,0.4
			c-1,0.4-1.8,1.2-2.4,2.4c-0.3,0.3-0.5,0.5-0.5,0.4c0-0.1,0-0.2,0.1-0.3c0.1-0.1,0.1-0.2,0.1-0.3c0.1-0.4,0.1-0.6,0.1-0.6
			c-0.1,0-0.3,0.2-0.6,0.5c-2,1.7-3.6,4.3-4.6,7.7c-0.7,1.2-1.8,2-3.1,2.3c-0.4,0.1-0.6,0-0.6-0.3c0-0.1,0.2-0.3,0.5-0.6
			c0.4-0.5,1-1.4,1.7-2.7c0.5-0.9,1.1-1.9,1.7-2.7c0.2-0.3,0.1-0.5-0.4-0.6c-0.6-0.2-1.3-0.8-2.2-1.6c-0.8-0.8-1.6-1.7-2.4-2.5
			c-2.1-2.2-4.2-4.4-6.3-6.5c-0.3-0.4-0.7-0.7-1.1-0.9c-0.2-0.2-0.5-0.2-0.9-0.2C12.9,117.4,12.7,117.3,12.7,117z M21.8,118.9
			c0-0.9,0.6-1.4,1.7-1.7c0.4,0,0.7,0.1,0.7,0.5c-0.6,1.8-1.6,3-3.1,3.6c-0.3,0.1-0.4,0.1-0.4-0.1c0-0.1,0.1-0.2,0.3-0.4
			C21.3,120.6,21.6,119.9,21.8,118.9z"/>
		<path fill="#DC4174" d="M32.2,102.2c-0.1,0-0.1-0.1,0-0.2c0.7-0.6,1.5-1.1,2.4-1.4c0.5-0.2,1-0.2,1.6,0.1c0.5,0.2,0.8,0.5,0.9,0.9
			c-0.1,0.4-0.3,0.6-0.8,0.6c-0.3,0.1-0.9,0.1-1.8,0C33.9,102.1,33.1,102.1,32.2,102.2z M35.2,105.6c-0.4-0.3-0.2-0.5,0.4-0.4
			c0.6,0.1,1.1,0.3,1.4,0.5c0.9,0.7,1.8,1.6,2.7,2.8c0.7,1,1.5,2,2.3,3c1.9,2.2,3.5,4.2,4.8,5.8c0.1,0.2,0.2,0.4,0.3,0.7
			c0,0.2-0.2,0.2-0.6,0.1c-0.5-0.1-0.9-0.3-1.3-0.6c-0.6-0.3-1.2-1.1-2-2.2c-0.7-0.9-1.5-1.9-2.2-2.8c-1-1.4-2-2.7-3-4.1
			C37,107.2,36.1,106.3,35.2,105.6z M41.3,92c1-0.8,2.1-1.4,3.3-1.9c1.6-0.7,3.3-0.6,4.8,0.3c0.4,0.3,0.7,0.6,1,0.9
			c4.3,4.1,8.2,8.7,11.7,13.6c0.5,0.7,1,2,1.3,3.7c0.1,0.9-0.5,1.1-1.7,0.6c-0.7-0.3-1.5-0.5-2.5-0.5c-0.4,0-0.6,0-0.8-0.1
			c-0.2-0.1-0.2-0.2-0.2-0.2c0.1,0,0.2-0.1,0.3-0.1c0.6,0,1.1-0.2,1.4-0.3c0.4-0.2,0.7-0.4,1-0.7c0.2-0.4,0.1-0.8-0.1-1.1
			c-1.7-2.6-4.5-6.4-8.8-11.1c-1.5-1.7-2.8-2.9-3.8-3.6c-0.4-0.3-0.9-0.5-1.3-0.6c-0.6-0.1-1.1-0.1-1.6,0.2
			c-2.8,1.3-5.1,3.2-6.7,5.7c-0.5,1-1.2,1.8-2.3,2.2c-0.5,0.1-0.8,0.1-0.9,0.1c0,0-0.1-0.1-0.1-0.1c0-0.1,0.1-0.3,0.5-0.6
			C37.6,95.6,39.4,93.6,41.3,92z"/>
		<path fill="#DC4174" d="M76.5,70.6c0.5-0.4,0.9-0.8,1.4-1c1-0.3,2.1-0.2,3.4,0.3c0.2,0.1,0.2,0.2,0.1,0.4
			c-0.2,0.3-0.6,0.6-1.2,0.9c-1.5,0.6-2.7,1.2-3.5,1.8c-1.2,0.8-2.3,1.8-3.3,3.2c-0.7,1.1-1.2,2.1-1.4,3c-0.3,2.6-0.1,5.1,0.6,7.5
			c0.2,0.9,0.4,1.8,0.7,2.7c0.2,0.7,0.4,1.7,0.6,2.8c0.1,1.1,0.1,2.1-0.1,3.2c-0.4,2-1,3.7-2,5.2c-0.3,0.4-0.6,0.7-0.9,0.9
			c-0.4,0.2-0.4,0-0.2-0.6c0.9-2,1.3-4.4,1.2-7.1c0-0.8-0.1-1.7-0.3-3c-0.4-2.8-0.7-5.7-0.8-9c0-0.5,0-1.1,0.1-1.6
			c0.1-0.4,0-0.7-0.1-0.9c-0.1-0.2-0.3-0.1-0.5,0c-0.6,0.7-1.3,1.5-2,2.3c-0.6,0.4-1.7,0.7-3.3,0.8c-0.5,0-1-0.1-1.3-0.3
			c-0.1-0.1,0.1-0.2,0.6-0.4c0.8-0.2,1.7-0.7,2.7-1.7c2.2-2.6,4.8-5.1,7.6-7.5C75.1,72.2,75.8,71.5,76.5,70.6z M67.2,72.5
			c-0.1-0.1,0.2-0.2,0.6-0.4c1.3-0.5,2.3-0.8,3.2-0.8c1.2,0.1,2,0.5,2.4,1.4c-0.2,0.6-0.9,0.8-2,0.6c-1.1-0.4-2.1-0.7-3.1-0.7
			C67.6,72.6,67.3,72.5,67.2,72.5z M74.8,78.3c0.5-0.4,1.1-0.6,2-0.8c1.3-0.2,2.3,0.1,2.9,0.8c1.4,2.1,2.7,4.6,3.8,7.5
			c0,0.5,0,0.7,0,0.7c-0.1,0-0.3-0.1-0.6-0.5c-0.6-0.7-1.2-1.4-1.7-2.1c-0.7-1-1.5-1.9-2.2-2.9c-0.8-1-1.4-1.6-1.9-2
			c-0.5-0.4-1-0.5-1.7-0.4c-0.1,0.1-0.3,0-0.6-0.1C74.7,78.5,74.7,78.4,74.8,78.3z M87.9,83.2c0.4-0.4,0.9-0.8,1.4-1
			c0.5-0.2,1.2-0.1,2.1,0.4c0.8,0.2,1,0.7,0.8,1.5c-0.2,1.4-0.5,2.9-0.8,4.4c-0.1,0.5,0.1,0.6,0.6,0.5c1.1-0.2,1.7,0.1,1.8,0.9
			c-0.1,0.3-0.4,0.6-0.9,0.8c-1.9,1.3-3.6,2.2-5,2.7c-0.4,0.2-0.9,0.2-1.3,0.1c0,0-0.1-0.1,0-0.1c0.8-0.5,1.8-1.4,3.2-2.6
			c0.1-0.1,0.2-0.2,0.2-0.3c0-2.3,0-4.4,0-6.1c0-0.5-0.2-0.7-0.7-0.6c-0.4,0.1-0.7,0.4-1.2,0.9c-1.4,1.5-2.7,3.1-3.9,4.7
			c-0.6,0.8-1,1.6-1.4,2.4c-0.1,0.5,0,0.9,0.2,1.3c0.5,0.5,1.1,1,1.7,1.4c0.5,0.2,0.7,0.5,0.6,0.8c-0.1,0.1-0.4,0-1,0
			c-3.7-0.6-5.2-2.1-4.4-4.7c0.1-0.3,0.2-0.6,0.3-0.8c0.1-0.5,0.2-0.8,0.3-0.8c0.1,0,0.2,0.2,0.4,0.6c0.2,0.7,0.4,1.1,0.6,1.4
			c0.1,0,0.3-0.2,0.6-0.5C83.7,87.7,85.7,85.4,87.9,83.2z M85.4,75c0.4-0.2,0.7-0.3,1-0.3c0.4,0.2,0.4,0.6,0,1.2
			c-0.5,0.9-1.2,2.1-2,3.8c-0.3,0.6-0.5,0.8-0.5,0.8c-0.1-0.2,0-0.7,0.2-1.4c0.1-0.5-0.1-0.7-0.6-0.4c-0.4,0.3-0.8,0.5-1.2,0.8
			c-0.6,0.2-0.7,0.1-0.3-0.3c0.6-0.8,1.2-1.6,1.8-2.6C84.1,76,84.7,75.5,85.4,75z"/>
		<path fill="#DC4174" d="M96.8,55.6c-0.2-0.5-0.3-0.8-0.3-0.8c0.4,0,1,0.2,1.7,0.6c0.6,0.4,0.8,1.2,0.6,2.5c-0.2,0.6-0.1,1,0.1,1
			c1.3-1.7,2.4-3,3.5-3.8c0.5-0.3,1-0.5,1.7-0.4c0.5,0,0.9,0.1,1,0.2c0,0-0.2,0.2-0.7,0.5c-0.8,0.5-1.6,1.1-2.4,1.6
			c-0.4,0.3-0.4,0.6,0,1c0.2,0.2,0.5,0.4,0.7,0.6c0.5,0.2,0.8,0.1,1.1-0.3c0.2-0.5,0.3-0.8,0.4-0.9c0.2,0,0.3,0.2,0.2,0.6
			c-0.2,1.3,0,2.2,0.5,2.9c0.3,0.6,0.2,0.8-0.3,0.8c-0.6,0-1.1-0.2-1.4-0.4c-0.7-0.5-1.4-1.5-1.9-3c-0.2-0.4-0.5-0.3-0.8,0.1
			c-0.5,0.6-1,1.4-1.4,2.4c-0.3,0.8-0.8,1-1.4,0.6c-0.9-0.4-1.2-0.9-1-1.5C97.6,58.3,97.6,56.8,96.8,55.6z M106.4,58.5
			c0-0.1,0.3-0.2,0.9-0.3c1.8-0.2,3.2,0.2,4.1,1.2c0.2,0.3,0.5,0.2,0.9-0.1c1.8-1.4,3.6-2.5,5.3-3.4c1.1-0.6,2.3-0.9,3.7-0.8
			c0.9,0.1,1.5,0.3,1.9,0.7c0.9,0.7,0.9,1.3-0.2,1.7c-0.8,0.5-1.6,1.2-2.4,2.1c-0.4,0.4-0.7,0.5-0.7,0.5c0,0,0.1-0.4,0.3-0.9
			c0.5-1.1,0.7-2,0.5-2.7c-0.1-0.1-0.2-0.2-0.3-0.3c-0.3-0.1-0.7-0.1-1.2,0.1c-0.7,0.2-1.7,0.7-2.9,1.6c-3.5,2.2-6.1,4.2-7.8,6
			c-1.2,1.1-2.3,2.4-3.3,3.9c-0.7,1-1.1,2.2-1.3,3.4c0,0.9-0.6,1.2-1.7,0.8c-1.3-0.5-1.7-1.4-1.2-2.7c0.6-1.3,0.9-2.5,0.9-3.4
			c0-0.2,0.1-0.3,0.1-0.3c0.1-0.1,0.3,0,0.4,0.2c0.1,0.3,0.3,0.7,0.5,1c0.2,0.5,0.5,0.6,1,0.3c0.4-0.3,0.8-0.6,1.2-1.1
			c1.9-2,3.7-3.7,5.3-4.9c0.4-0.3,0.3-0.5-0.3-0.8c-0.8-0.5-1.6-1-2.4-1.3C106.8,58.7,106.4,58.5,106.4,58.5z M105.7,48.6
			c0.1-0.2,0.3-0.3,0.6-0.4c0.3-0.1,0.8-0.1,1.3,0.1c1.1,0.4,1.7,1.2,1.6,2.5c0,0.5,0.2,0.7,0.6,0.8c0.3-0.1,0.5-0.3,0.7-0.6
			c0.2-0.3,0.4-0.5,0.6-0.6c0.4-0.3,0.8-0.7,1.2-1.2c0.4-0.4,0.8-0.8,1.3-1.1c0.4-0.3,0.9-0.4,1.5-0.4c0.4,0,0.6,0.3,0.5,0.7
			c-0.2,0.5-0.7,0.8-1.6,1c-0.3,0.1-0.7,0.3-1.1,0.8c-0.8,1.1-0.3,2,1.4,2.7c0.6,0.3,1,0.9,1.1,1.6c0,0.2,0,0.5-0.2,0.8
			c-0.7,1.2-1.8,1.9-3.2,2.3c-0.6,0.1-0.7,0-0.2-0.5c0.5-0.3,0.9-0.7,1.2-1.2c0.7-1.2,0.7-2.2-0.2-3c-0.3-0.2-0.5-0.5-0.7-0.9
			c-0.1-0.4-0.3-0.5-0.3-0.6c-0.3-0.1-0.5,0-0.8,0.3c-0.4,0.4-0.8,0.9-1.1,1.4c-0.4,0.8-0.9,1.4-1.4,1.8c-0.6,0.1-1.1-0.1-1.5-0.8
			c-0.2-0.2-0.2-0.4,0-0.6c0.3-1,0.4-2.1,0.4-3.3c0-0.4-0.2-0.7-0.5-0.9C106,48.8,105.7,48.7,105.7,48.6z M108.4,67.5
			c-0.3-0.4-0.1-0.6,0.5-0.3c0.5,0.2,0.9,0.6,1.3,1c0.8,1,1.6,2.2,2.2,3.6c0.5,1.2,1.3,2.5,2.3,4.1c0.7,1.2,1.4,2.4,2,3.6
			c0.1,0.2,0.2,0.4,0.2,0.7c0.2,0.6,0,0.9-0.5,0.7c-1.2-0.4-1.9-0.9-2.1-1.4c-1.1-1.9-2.2-4-3.2-6.5c-0.4-0.9-0.8-1.7-1.2-2.6
			C109.7,69.3,109.1,68.4,108.4,67.5z M116.5,61.8c0.6-0.6,1.2-0.7,2.1-0.6c0.5,0.2,0.6,0.7,0.3,1.4c-0.5,1.4-1.1,2.7-1.9,4.1
			c-0.2,0.5-0.4,1-0.6,1.5c0,0.4,0.2,0.5,0.6,0.4c0.3-0.2,0.6-0.6,1-1.1c0.4-0.5,0.8-0.9,1.2-1.2c0.5-0.4,1-0.6,1.7-0.6
			c0.7,0.3,0.9,0.7,0.6,1.2c-0.7,1.5-1.6,3.1-2.7,4.9c-0.3,0.5-0.4,0.8-0.3,1c0.1,0.2,0.3,0.2,0.6-0.1c0.3-0.3,0.7-0.6,1.2-1.2
			c0.7-0.7,1.5-1.3,2.6-1.9c0.4-0.3,0.8-0.3,1.2-0.1c0.1,0.1,0.2,0.4,0.1,0.9c0,0.1-0.1,0.3-0.1,0.4c-0.4,0.9-0.6,1.6-0.7,2.2
			c0,0.5,0.2,0.7,0.7,0.6c0.4-0.1,0.6,0,0.8,0.3c0.1,0.1,0.1,0.3,0.1,0.4c-0.1,0.1-0.3,0.3-0.6,0.4c-0.5,0.4-0.9,0.7-1.2,1.1
			c-0.7,0.9-1.5,1.6-2.4,2.2c-0.2,0.1-0.5,0.2-0.7,0.3c-0.3,0.1-0.5,0-0.6-0.2c0-0.1,0.1-0.4,0.5-0.9c1.3-1.7,2.2-3.5,2.8-5.4
			c0.1-0.5,0-0.7-0.1-0.7c-0.2-0.1-0.4,0-0.6,0.1c-1.3,0.9-2.8,2.5-4.6,4.7c-0.5,0.6-0.9,1-1.2,0.9c-0.1,0-0.2-0.3-0.2-0.8
			c0.1-0.6,0.3-1.2,0.7-1.7c0.8-1.4,1.7-3.1,2.6-5.1c0.2-0.3,0.2-0.6,0.1-0.7c-0.2-0.1-0.4,0-0.7,0.2c-0.9,0.7-2,1.5-3.1,2.5
			c-0.1,0.2-0.2,0.3-0.4,0.3c-0.3,0.1-0.5,0-0.5-0.3c0-0.2,0.1-0.6,0.4-1.2c0.8-1.9,1.3-3.6,1.7-4.9c0.1-0.4,0-0.7-0.1-0.7
			c-0.3-0.1-0.6,0.1-1.1,0.4c-1.1,1.1-2.1,1.9-2.8,2.4c-0.5,0.3-0.6,0.2-0.3-0.4c1-1.1,1.8-2,2.2-2.6
			C115.1,63.4,115.8,62.5,116.5,61.8z"/>
		<path fill="#DC4174" d="M138.8,39.1c0.4-0.3,0.9-0.3,1.5-0.2c0.3,0.1,0.7,0.2,1.2,0.4c0.7,0.2,1,0.7,0.8,1.4
			c-0.5,1.5-0.5,3.8,0.1,6.7c0.1,0.3,0.1,0.7,0.2,1c0.1,0.5,0.3,0.5,0.7,0c0.5-0.6,1-0.9,1.5-1.1c0.6-0.4,1.3-0.5,2.1-0.3
			c0.4,0.2,0.4,0.6,0.2,1.1c-0.9,2.4-1.8,5.7-2.6,9.9c-0.2,0.2-0.3,0.4-0.3,0.7c-0.1,0.6-0.2,1.2-0.3,1.8c-0.1,0.6,0,0.9,0.4,1.1
			c0.1,0,0.3-0.3,0.8-0.7c1.8-2.4,3.1-4.6,4-6.5c0.5-0.6,0.7-0.8,0.8-0.8c0.1,0.3,0.1,0.6-0.1,1c-0.6,2.3-1.9,5.2-3.7,8.8
			c-0.6,1.5-1.6,1.8-3,1c-0.9-0.4-1.1-1.3-0.6-2.7c0.3-1.2,0.6-2.5,1-3.7c0.1-0.3,0.1-0.5,0-0.7c-0.6-1.2-1.1-2.7-1.5-4.4
			c-0.1-0.4-0.3-0.4-0.7-0.1c-0.4,0.3-0.7,0.6-1.1,1c-0.5,0.3-0.8,0.5-0.8,0.5c0.1-0.2,0.2-0.4,0.3-0.6c0.5-0.7,1-1.4,1.5-2
			c0.3-0.4,0.5-0.9,0.4-1.4c-0.6-2.7-1-5-1.2-7c0-0.3-0.1-0.5-0.3-0.8c-0.4-0.1-1,0.2-1.6,0.8c-1.4,1.3-2.7,2.2-3.9,2.7
			c-0.7,0.1-0.8-0.1-0.4-0.5c1-0.8,1.8-1.8,2.6-3.1C137.2,41.1,137.9,40.1,138.8,39.1z M144.9,49.6c-0.5,0-1,0.4-1.6,1
			c-0.2,0.3-0.3,0.5-0.3,0.6c0.2,1.2,0.5,2.2,0.7,3.1c0.2,0.5,0.3,0.7,0.3,0.6c0.1-0.1,0.1-0.2,0.2-0.5c0.5-1.7,0.9-3,1-3.7
			C145.3,50.2,145.2,49.8,144.9,49.6z M146.8,40.1c0.2-0.2,0.5-0.3,1-0.1c1.8,0.3,3.1,0.9,3.9,2c0.7,0.8,1.4,2,2.3,3.5
			c0.4,0.7,0.6,1.1,0.6,1.4c0.1,0.5-0.1,0.7-0.7,0.4c-1.9-1.1-3.6-2.8-5.1-5.1c-0.4-0.5-0.8-1-1.3-1.3
			C147,40.4,146.8,40.1,146.8,40.1z M158,32c1.7-0.8,3.4-1.1,5-0.8c1.5,0.6,2.5,1.4,3,2.5c0.5,3.2,0,6-1.4,8.4
			c-0.3,0.5-0.4,0.8-0.2,0.8c0.5,0.4,0.4,0.7-0.3,1c-1.2,0.3-2.4,0.8-3.4,1.4c-0.4,0.3-0.6,0.6-0.4,1.2c0.3,0.6,0.5,1.3,0.8,1.9
			c0.2,0.5,0.5,0.5,1,0c0.5-1,1.3-1.5,2.2-1.6c0.6-0.1,1.2,0,1.8,0.3c0.1,0.1-0.1,0.5-0.6,1.2c-0.4,0.5-0.9,1.1-1.3,1.6
			c-0.3,0.3-0.7,0.7-1,1.2c-0.3,0.6-0.3,1.1-0.1,1.5c0.6,1.1,0.9,2,1,2.7c0,0.3-0.1,0.4-0.4,0.4c-0.7-0.2-1.3-0.6-1.8-1.3
			c-0.3-0.4-0.6-0.3-1,0.3c-0.6,1-1.2,2-1.7,3.1c-0.2,0.5-0.3,0.8-0.2,0.8c0.1,0,0.4-0.1,1-0.4c2.5-1.4,5.3-2.6,8.3-3.8
			c0.2-0.1,0.2-0.3,0.1-0.5c-0.1-0.2-0.3-0.5-0.7-0.8c-0.5-0.4-0.7-0.6-0.4-0.6c1.9,0.4,4,0.6,6.3,0.7c1,0.2,1.4,0.7,1.3,1.4
			c-0.1,0.5-0.6,0.7-1.4,0.7c-0.9,0-1.5,0-1.8,0.1c-3,0.7-6.1,1.8-9,3.1c-1.8,0.8-3.4,1.9-4.6,3.1c-0.5,0.7-1.2,0.6-2.3-0.1
			c-0.5-0.3-0.7-0.7-0.8-1.1c0.1-0.3,0.4-0.6,0.9-0.9c0.5-0.6,1.1-1.6,1.9-2.9c0.8-1.5,1.7-2.9,2.6-4.4c0.1-0.2,0.1-0.4,0-0.6
			c-0.1-0.2-0.4-0.2-1,0.1c-1.2,0.6-2.2,0.9-3,0.9c-0.4,0-0.5-0.1-0.4-0.4c1-0.5,2.1-1.1,3.1-1.8c0.4-0.3,0.5-0.7,0.3-1.2
			c-0.3-0.7-0.6-1.4-0.9-2.1c-0.2-0.4-0.5-0.4-1.1-0.1c-0.6,0.4-1.4,0.6-2.3,0.4c-0.1-0.1,0.1-0.3,0.6-0.7c0.3-0.3,0.7-0.6,1-0.9
			c0.5-0.4,0.7-0.8,0.5-1.2c-0.3-0.8-0.6-1.5-1-2.3c-0.2-0.4-0.6-0.4-1.2-0.2c-1,0.3-1.8,0.5-2.5,0.5c-0.2,0-0.1-0.2,0.5-0.6
			c0.5-0.4,1-0.7,1.5-1.2c0.4-0.3,0.5-0.8,0.3-1.3c-0.5-1.2-1-2.2-1.5-2.9c0-0.1-0.1-0.2-0.3-0.3c-0.4-0.3-0.9-0.3-1.4,0
			c-0.4,0.3-0.9,0.6-1.4,1c-0.5,0.4-1.4,0.7-2.5,0.8c-0.3,0-0.7,0-1-0.1c-0.4-0.1-0.5-0.2-0.4-0.3c0-0.1,0.4-0.2,0.9-0.4
			c1.2-0.5,2.3-1,3.4-1.7C153.8,34.1,156.1,32.9,158,32z M161.2,32.1c-1.2,0.2-3,1-5.5,2.3c-0.5,0.3-0.6,0.5-0.3,0.6
			c0.3,0.2,0.5,0.5,0.6,0.7c0.3,0.8,0.6,1.7,1,2.6c0.2,0.4,0.5,0.4,1.1,0.1c0.4-0.2,0.9-0.4,1.6-0.5c0.7,0,1.1,0.2,1.3,0.7
			c0.3,0.3,0.2,0.5-0.2,0.8c-0.6,0.3-1.3,0.7-2.2,1.2c-0.4,0.3-0.5,0.7-0.3,1.2c0.3,0.6,0.5,1.2,0.7,1.8c0.2,0.4,0.5,0.4,1,0.1
			c0.9-0.5,1.5-0.8,1.9-0.9c0.5-0.1,0.8-0.4,0.9-0.9c0.5-2.7,0.5-5.4,0.1-8.1c-0.2-0.8-0.5-1.3-0.9-1.6
			C161.8,32.1,161.5,32.1,161.2,32.1z"/>
		<path fill="#DC4174" d="M194.5,17.1c1.3-0.6,2.6-0.6,3.8-0.1c1,0.5,1.1,1,0.4,1.6c-3,1.5-6.1,2.8-9.3,3.7
			c-1.5,0.4-2.9,0.5-4.3,0.4c-0.8-0.2-1.1-0.4-1.1-0.4c0-0.1,0.2-0.2,0.8-0.4c0.5-0.1,1-0.2,1.4-0.3c2.1-0.8,4.3-2,6.6-3.5
			C193.5,17.6,194,17.3,194.5,17.1z M185,30.7c-0.3-0.6-0.4-0.9-0.3-0.9c0.6-0.1,1.4,0.3,2.5,1c0.8,0.4,1.4,0.9,1.7,1.4
			c0.9,1.2,1.8,3.2,2.8,5.8c0.2,0.6,0.3,1,0.3,1.3c0,0.3-0.1,0.5-0.2,0.5c-0.1,0-0.5-0.2-1.1-0.7c-1.8-1.8-3.2-3.9-4.2-6.3
			C186.2,32.1,185.7,31.4,185,30.7z M189.9,24c0.9-0.8,2.1-0.8,3.6-0.2c0.4,0.2,0.8,0.5,1.1,0.9c0.4,0.4,0.8,0.5,1.4,0.2
			c1.8-0.9,3.5-1.6,5.2-2.1c1-0.3,2.2-0.2,3.5,0.4c0.9,0.4,1.7,1.1,2.4,2c0.2,0.3,0.3,0.9,0.4,1.8c0,0.1,0,0.3,0.1,0.4
			c0,1.2-0.3,2.6-0.7,4.1c-0.4,1.5-1.1,2.8-2.1,4c-0.4,0.3-0.6,0.5-0.5,0.6c0.5,0.2,0.6,0.5,0.4,0.7c-0.1,0.1-0.4,0.2-1,0.3
			c-1.2,0.1-2.1,0.2-2.8,0.5c-0.5,0.2-0.6,0.5-0.5,0.9c0.6,2,0.9,3.7,1.1,5.2c0,0.5,0.4,0.8,1,0.8c4.4,0.3,8.3,0.9,11.8,1.8
			c1.3,0.3,2.7,0.9,4.2,1.6c1.1,0.5,2,1.3,2.6,2.2c0.3,0.6,0.4,0.9,0.3,0.9c-0.3,0.1-0.9,0.1-1.8-0.1c-2.3-0.5-5-1.3-8.1-2.3
			c-3.4-1.1-6.5-1.8-9.2-2.2c-0.5-0.1-0.8,0.2-0.9,0.7c-0.3,1.3-0.9,2.5-1.8,3.5c-2.5,2.4-5.8,4-10,4.9c-0.6,0.2-1,0.2-1.2,0
			c0-0.1,0.2-0.2,0.8-0.4c2.1-0.7,4.2-1.9,6.1-3.4c1.5-1.2,2.6-2.7,3.5-4.7c0.2-0.6,0-1-0.7-1c-2.8-0.2-5.6-0.1-8.4,0.3
			c-0.3,0-0.5,0-0.6,0c-0.3-0.1-0.2-0.3,0.3-0.6c3.1-0.8,6.2-1.1,9.1-1.1c0.5,0,0.8-0.3,0.7-0.9c-0.1-1.3-0.3-2.7-0.6-4.2
			c-0.1-0.5-0.4-0.6-1-0.3c-0.5,0.2-0.9,0.5-1.3,0.8c-0.4,0.4-1,0.6-1.6,0.9c-0.9,0.1-1.4-0.2-1.4-0.9c0-0.2,0.1-0.3,0.1-0.4
			c1-1.5,2-3.1,3.1-4.6c0.3-0.5,0.4-1,0.2-1.4c-0.2-0.4-0.3-0.8-0.5-1.2c-0.2-0.4-0.5-0.5-1-0.1c-1,1.1-1.8,1.8-2.2,2.1
			c-0.1,0-0.1-0.4,0-1c0.6-1.1,1.2-1.9,1.9-2.5c0.4-0.2,0.5-0.5,0.3-1c-0.3-0.5-0.6-1.1-0.9-1.6c-0.2-0.5-0.6-0.6-1.1-0.3
			c-0.5,0.4-1,0.7-1.5,1.1c-1.1,0.6-2,0.7-2.8,0.5c-0.6-0.1-1-0.3-1-0.6c0-0.1,0.3-0.2,0.9-0.5c1.2-0.6,2.5-1.2,3.7-1.7
			c0.5-0.2,0.5-0.6,0-1.1c-0.7-0.7-1.3-0.9-2-0.9c-0.3,0-0.6-0.1-0.7-0.3C189.8,24.3,189.8,24.1,189.9,24z M202.6,23.7
			c-1.2,0.1-3.2,0.9-5.9,2.4c-0.4,0.2-0.5,0.5-0.3,1c0.2,0.5,0.5,1,0.7,1.5c0.2,0.4,0.5,0.6,1,0.4c0.8-0.4,1.8-0.3,3,0.3
			c1.2,0.6,1,1.6-0.3,3.1c-0.4,0.4-0.7,0.8-1,1.2c-0.4,0.4-0.4,0.9-0.2,1.5c0.1,0.3,0.1,0.5,0.2,0.8c0.2,0.4,0.5,0.5,1.1,0.3
			c0.5-0.2,1-0.3,1.6-0.5c0.5,0,0.9-0.4,1.2-1c0.8-3.2,1.1-6.2,0.7-9c-0.2-0.8-0.4-1.4-0.7-1.7C203.2,23.8,202.9,23.7,202.6,23.7z
			 M198,36.8c-0.2-0.5-0.5-0.5-0.9,0c-0.2,0.2-0.3,0.4-0.5,0.6c-0.2,0.6-0.1,0.8,0.3,0.7c0.2-0.1,0.3-0.2,0.5-0.3
			C198,37.6,198.2,37.3,198,36.8z M198.8,30.4c-0.9-0.1-1.2,0.2-0.7,0.9c0.2,0.6,0.5,0.6,0.8,0C199.2,30.8,199.1,30.5,198.8,30.4z"
			/>
		<path fill="#DC4174" d="M232.2,8.8c0.1-0.1,0.2-0.1,0.3,0c1.1,0.7,1.5,1.7,1.2,3.1c0,0.8-0.4,2-0.9,3.6c0.1,0.1,0.5,0,1.1-0.3
			c0.9-0.5,2-1.4,3.3-2.7c1.1-1,2-1.7,2.7-2c0.9-0.3,1.7-0.3,2.6,0c0.6,0.3,0.9,0.6,1.1,0.9c-0.1,0.4-0.4,0.6-1.1,0.8
			c-1.6,0.4-2.9,1-3.8,1.8c-1,1.2-0.8,2.6,0.6,4c0.5,0.6,0.9,0.9,1.5,0.9c0.2-0.1,0.3-0.2,0.4-0.4c0.6-0.7,1.1-1.4,1.6-2.1
			c0.1,0.1,0.1,0.4,0,1.1c-0.2,0.9-0.4,1.8-0.8,2.8c-0.3,0.8-0.6,1.2-0.7,1.2c-0.8-0.1-1.7-0.5-2.5-1.2c-1.1-1-1.6-2.2-1.6-3.8
			c0.1-0.3-0.2-0.5-0.7-0.8c-0.4-0.1-0.8-0.1-1.1,0.1c-0.8,0.4-1.8,1.5-3,3.2c-0.2,0.4-0.5,0.5-0.9,0.5c-0.2,0-0.4-0.1-0.6-0.3
			c-1.2-1-1.6-2-1.4-3c0.1-0.1,0.4-0.3,0.7-0.5C232.2,13.5,233,11.1,232.2,8.8z M234.1,23.6c0-0.1,0.3-0.1,0.6-0.1
			c0.7,0.1,1.5,0.2,2.2,0.3c1.4,0.3,2.3,1,2.8,2.2c0.2,0.5,0.2,0.9,0.1,1.2c-0.5,0.3-1.2,0.1-2.2-0.5c-0.4-0.3-0.8-0.6-1-0.9
			c-0.5-0.4-1-0.9-1.5-1.3C234.4,24,234.1,23.7,234.1,23.6z M234.7,28.6c-0.2-0.7-0.3-1.1-0.2-1.2c0.1,0,0.3,0,0.5,0.2
			c1.2,1,1.8,1.7,1.8,2.2c1.1,3.6,2.7,9.3,4.5,16.9c0.2,0.6,0.2,1,0.2,1.2c0,0.3-0.1,0.4-0.3,0.5c-0.4,0.1-0.9-0.3-1.7-1
			c-1.4-1.3-2-2.8-1.8-4.4C237.3,38.1,236.4,33.3,234.7,28.6z M253.4,20c2-0.3,3.9,0.1,5.7,1.4c1.1,0.9,1.8,1.9,2.2,2.9
			c2,4.4,3.9,11.1,5.5,20.1c0.2,1.2,0.1,2.4-0.3,3.9c-0.2,0.9-0.5,1.5-0.8,1.8c-0.5,0.3-1,0-1.6-0.8c-0.5-0.7-1-1.3-1.7-1.8
			c-0.7-0.2-1.2-0.6-1.7-1c-0.2-0.3,0.1-0.4,0.9-0.3c1.2,0.2,2,0,2.4-0.6c0.1-0.2,0.1-0.6,0.1-1c-0.5-4-1.7-9-3.6-15
			c-0.5-2-1.2-3.9-2-5.8c-0.3-0.8-0.9-1.3-1.8-1.7c-0.5-0.2-1.2-0.3-2.1-0.3c-3.3,0-6.2,0.8-8.7,2.4c-1.1,0.9-2.4,1.3-4,1
			c-0.4,0-0.8-0.2-1.1-0.4c-0.1-0.1,0.1-0.4,0.7-0.7C246,21.7,249.9,20.4,253.4,20z M248,6.9c-0.4-0.4-0.6-0.6-0.3-0.6
			c0.8,0,1.6,0.5,2.5,1.5c1,1.2,0.8,2.7-0.6,4.6c-0.3,0.3-0.4,0.6-0.3,0.8c0.1,0.1,0.2,0.1,0.3,0.1c1.7-1.1,3.6-2,5.7-2.7
			c1.5-1,3.1-1.3,4.6-0.8c0.7,0.2,1.1,0.6,1.3,1.2c0,0.1-0.3,0.3-1,0.5c-1.6,0-3.1,0.2-4.5,0.8c-0.6,0.2-0.6,0.6,0.1,1.2
			c0.5,0.6,0.9,1.2,1.1,1.8c0.3,0.5,0.2,1-0.2,1.5c-1.5,1.3-3.2,2-4.9,2.1c-0.1-0.1-0.1-0.1-0.1-0.2c1.9-1.8,2.8-3.5,2.7-5.1
			c-0.1-0.5-0.5-0.7-0.9-0.4c-1.4,0.6-3.2,1.6-5.2,2.9c-0.7,0.2-1.1,0.1-1.4-0.1c-1-0.9-1-1.8,0.1-2.7c0.8-1.4,1.3-2.7,1.5-4
			C248.6,8.4,248.5,7.6,248,6.9z M245.5,32.3c0.1-0.1,0.2,0.1,0.3,0.9c0.2,1.5,0.8,3.1,1.7,4.6c0.8,1.2,1.1,2.2,1,3
			c-0.2,0.5-0.5,0.6-1.1,0.3c-1.3-1.1-2-2.4-2.2-3.9c-0.3-1.6-0.4-3.1,0-4.4C245.3,32.6,245.4,32.4,245.5,32.3z M250.3,28.7
			c0.8-0.5,1.6-0.4,2.6,0.1c0.8,0.5,1.3,1.1,1.6,1.9c0.9,2.6,1.5,4.6,2,5.9c0.7,1.4,0.9,2.8,0.6,4.1c-0.2,0.9-0.7,1.4-1.3,1.5
			c-0.3-0.1-0.6-0.4-1-0.8c-0.6-0.6-1.2-0.9-1.9-0.7c-1.2,0.3-2,0.5-2.4,0.5c-0.9-0.1-1.3-0.6-1.1-1.4c0.3-1.3,0.7-2.6,1.1-3.9
			c0.1-0.2,0.1-0.5,0.1-0.9c0-0.2-0.1-0.3-0.4-0.3c-0.4,0-0.7,0.2-1.1,0.4c-0.8,0.3-0.9,0.1-0.6-0.6c1.1-1.2,2.3-1.6,3.6-1.4
			c1,0.2,1.2,0.8,0.5,1.7c-0.9,1.6-1.6,2.9-1.9,4c-0.1,0.3-0.1,0.6,0.1,0.9c0.1,0.1,0.5,0.1,1.1-0.1c0.6-0.3,1.1-0.4,1.6-0.5
			c0.6-0.1,0.9-0.4,0.8-1c-0.2-2.1-0.8-4.6-1.5-7.5c0-0.5-0.2-1-0.6-1.4c-0.6-0.3-1.2-0.1-1.8,0.4c-0.6,0.6-1.5,1.2-2.7,1.7
			c-0.4,0.3-0.8,0.4-1.2,0.2c-0.4-0.1-0.5-0.3-0.4-0.4c0.1-0.1,0.3-0.2,0.6-0.4C247.9,30.2,249.1,29.4,250.3,28.7z"/>
		<path fill="#DC4174" d="M292.2,10.6c0.3-0.6,0.6-0.8,0.9-0.4c0.2,0.3,0.4,0.8,0.6,1.4c0.3,0.7,0.8,1,1.4,0.9
			c1.1-0.6,2.2-1.2,3.3-1.8c0.7-0.1,1.1-0.1,1.2-0.1c0.1,0.2,0,0.4-0.3,0.5c-2.4,1.4-4.2,2.9-5.4,4.6c-0.1,0.6-0.2,1-0.4,1.3
			c-0.3,0.9-0.8,1.1-1.5,0.5c-2-2-2.1-4-0.2-6.1C291.9,11.1,292.1,10.8,292.2,10.6z M289.2,21.1c0.1-0.1,0.5,0.1,1.3,0.4
			c0.7,0.4,1.5,1,2.5,2.1c0.6,0.7,1.1,2,1.7,4c0.3,1,0.6,2,0.9,3c0.2,0.5,0.3,0.9,0.1,1.3c-0.1,0.2-0.5,0-1.2-0.7
			c-1.6-2-2.7-4-3.3-6c-0.2-1.1-0.8-2.4-1.9-3.8C289.2,21.2,289.2,21.2,289.2,21.1z M304.3,7.8c0.3-0.3,0.8-0.4,1.7-0.3
			c0.9,0.2,1.7,0.6,2.4,1.2c0.7,0.7,1.3,1.4,1.5,2.1c0.3,0.7-0.1,1.5-1.1,2.5c-1.1,1.2-2.9,2.6-5.3,4.4c-0.5,0.5-0.4,0.7,0.4,0.6
			c1.9-0.3,3.3-0.5,4.3-0.5c1.5,0,3.1,0.8,4.8,2.6c0.5,0.5,0.9,1.2,1.3,2.1c0.2,0.8-0.1,2-0.8,3.8c-0.7,2.2-1.7,4.1-3.1,5.6
			c-1.2,0.9-2.5,1-4,0.2c-0.7-0.4-1.2-0.7-1.6-0.6c-0.4,0.1-0.6,0.5-0.5,1.1c0.1,0.5,0.1,1,0.2,1.5c0.1,0.5,0.5,0.8,1.2,0.8
			c4.8-0.3,8.8-0.1,12,0.5c0.9,0.1,2.2,1,3.7,2.7c0.2,0.3,0.3,0.6,0.2,1c-0.6,0.8-1.4,0.8-2.5,0.1c-4-1.9-8.5-2.7-13.4-2.3
			c-0.5,0-0.8,0.4-0.8,1.1c0.4,3.2,0.7,6.4,0.7,9.6c0.1,1.6-0.1,2.8-0.3,3.5c-0.1,0.1-0.2,0.1-0.3,0c-0.3-0.7-0.5-2-0.8-3.9
			c-0.6-3.7-1.1-6.8-1.5-9.4c-0.1-0.5-0.5-0.8-1.2-0.7c-2.9,0.2-5.6,1.1-8,2.5c-1.9,1-3.6,0.8-5.2-0.6c-1-0.9-1.6-1.9-1.6-2.9
			c0.1,0,0.5,0.2,1.2,0.8c0.7,0.4,1.4,0.6,2.1,0.5c0.5,0,1.2-0.2,2-0.5c3.8-1.1,7-1.8,9.4-1.9c0.6,0,0.8-0.4,0.7-1
			c-0.1-0.4-0.1-0.9-0.2-1.3c-0.1-0.5-0.5-0.8-1.2-0.8c-0.8,0-1.6,0-2.2-0.1c-1.1-0.6-1.3-1.3-0.4-2.2c0.7-0.5,1.4-1,2.1-1.4
			c0.6-0.3,0.8-0.8,0.6-1.5c0-0.2-0.1-0.4-0.1-0.6c-0.1-0.6-0.5-0.7-1.1-0.6c-0.6,0.2-1.2,0.5-1.8,0.7c-0.4,0.2-0.8,0.4-1.2,0.4
			c-0.1,0,0.1-0.3,0.8-1c0.7-0.6,1.3-1,2-1.3c0.5-0.2,0.6-0.6,0.4-1.2c-0.3-0.8-0.7-1.5-1.3-2c-0.1-0.1-0.5,0-1.1,0.1
			c-0.8,0.2-1.5,0.3-2.3,0.5c-0.7,0.2-1.3,0.1-1.7-0.1c-0.7-0.4-1.2-0.9-1.4-1.5c0.1-0.1,0.5,0,1.2,0.1c0.8,0.1,1.6,0,2.6-0.2
			c1-0.3,2.1-0.5,3.1-0.7c0.2,0,0.4-0.1,0.5-0.2c2.3-1.7,4.4-4.3,6.3-7.7c0.3-0.5,0.4-1.1,0.3-1.6c-0.2-0.7-0.9-1.2-1.9-1.6
			C304.3,8,304.3,7.9,304.3,7.8z M308.7,19.2c-1.1,0-2.7,0.3-4.7,0.7c-0.9,0.2-1.7,0.4-2.6,0.5c-0.6,0.1-0.4,0.5,0.4,1.1
			c0.2,0.2,0.4,0.4,0.6,0.7c0.3,0.5,0.9,0.7,1.6,0.6c1.3-0.2,2.5,0,3.5,0.4c1.1,0.8,1.2,1.5,0.1,2.1c-1,0.5-2,1-3,1.6
			c-0.5,0.3-0.7,0.7-0.7,1.2c0,0.3,0.1,0.5,0.1,0.8c0.1,0.5,0.5,0.8,1.2,0.7c0.9,0.1,1.5,0.3,1.8,0.8c0,0.1,0.4-0.1,1-0.6
			c2.3-2.7,3.3-5.4,2.9-8.4C310.8,20.1,310.1,19.4,308.7,19.2z M301.4,29.5c-0.1-0.7-0.4-0.8-1-0.5c-0.7,0.5-1,0.9-0.9,1.3
			c0.1,0.3,0.5,0.4,1.2,0.3C301.3,30.5,301.5,30.2,301.4,29.5z M305.1,24.8c-0.1-0.3-0.5-0.5-1-0.4c-0.5,0-0.8,0.1-0.8,0.2
			c0.1,0.3,0.1,0.5,0.2,0.8c0.1,0.5,0.4,0.6,0.9,0.1C304.7,25.4,305,25.1,305.1,24.8z"/>
	</g>
</g>
<g>
	<path d="M-110.3-183.7"/>
	<g>
		<path d="M-110.9-183c0.9,0,3.1-1.3,1.2-1.3C-110.6-184.3-112.9-183-110.9-183L-110.9-183z"/>
	</g>
</g>
<g>
	<g>
		<path fill="#DC4174" d="M18.2,152.4c58.3-58,138.3-91.2,219.8-97.5c25.9-2,52-1.3,77.9,1.8c1.5,0.2,2.9-2,1-2.2
			C229.9,44,140,62,66.4,110.3c-18.2,12-35.2,25.7-50.7,41.1C14.4,152.7,17.2,153.4,18.2,152.4L18.2,152.4z"/>
	</g>
</g>
</svg>
