<?xml version="1.0" standalone="no"?><!DOCTYPE svg PUBLIC "-//W3C//DTD SVG 1.1//EN" "http://www.w3.org/Graphics/SVG/1.1/DTD/svg11.dtd"><svg class="icon" width="200px" height="200.00px" viewBox="0 0 1024 1024" version="1.1" xmlns="http://www.w3.org/2000/svg"><path d="M67.52 331.84h904.8v67.04H67.52z" fill="#FF7043" /><path d="M969.92 992H54.08A53.28 53.28 0 0 1 0 939.52V206.4a53.28 53.28 0 0 1 54.08-52.48h373.76V224H68.8v697.44h886.4V224H599.84v-70.08h370.08A53.28 53.28 0 0 1 1024 206.4v733.12A53.28 53.28 0 0 1 969.92 992z m0 0" fill="#FF7043" /><path d="M581.92 395.04H442.08a34.24 34.24 0 0 1-33.92-34.72V66.72A34.24 34.24 0 0 1 442.08 32h139.84a34.24 34.24 0 0 1 33.92 34.72v293.6a34.24 34.24 0 0 1-33.92 34.72zM476 325.6h72v-224h-72z m382.4 188.8a27.84 27.84 0 0 0-27.68-28h-224a28 28 0 0 0 0 55.84h224a27.84 27.84 0 0 0 27.68-28zM607.04 630.08a28 28 0 0 0 0 55.84h167.68a28 28 0 0 0 0-55.84zM858.4 801.6a27.84 27.84 0 0 0-27.68-28h-224a28 28 0 0 0 0 55.84h224a27.84 27.84 0 0 0 27.68-28zM512 830.08H170.24v-8.8c0-53.28 100.48-108.16 128-113.76a39.52 39.52 0 0 0 2.24-11.68 122.4 122.4 0 0 1-27.2-51.2 29.12 29.12 0 0 1-13.76-17.12 41.76 41.76 0 0 1 3.68-38.56c-1.6-14.72-5.76-53.92 17.12-80a77.92 77.92 0 0 1 61.12-23.04 78.08 78.08 0 0 1 61.12 23.04c22.88 25.76 18.72 64.8 17.12 80a41.76 41.76 0 0 1 3.68 38.56 29.12 29.12 0 0 1-13.76 17.12 123.2 123.2 0 0 1-27.36 51.2 39.52 39.52 0 0 0 2.24 11.68c27.36 5.6 128 60.48 128 113.76v8.8z m0 0" fill="#FF7043" /></svg>