<?xml version="1.0" standalone="no"?><!DOCTYPE svg PUBLIC "-//W3C//DTD SVG 1.1//EN" "http://www.w3.org/Graphics/SVG/1.1/DTD/svg11.dtd"><svg class="icon" width="200px" height="183.35px" viewBox="0 0 1117 1024" version="1.1" xmlns="http://www.w3.org/2000/svg"><path d="M1070.545455 65.163636v893.672728H46.545455V65.163636h1024z m27.927272-27.927272H18.618182v949.527272h1089.163636V37.236364z" fill="#EC407A" /><path d="M1098.472727 512l-372.363636 372.363636L558.545455 716.8 18.618182 986.763636h1079.854545z" fill="#EC407A" /><path d="M316.509091 567.854545c-102.4 0-186.181818-83.781818-186.181818-186.181818s83.781818-186.181818 186.181818-186.181818 186.181818 83.781818 186.181818 186.181818-83.781818 186.181818-186.181818 186.181818z m0-335.127272c-83.781818 0-158.254545 74.472727-158.254546 158.254545s74.472727 158.254545 158.254546 158.254546 158.254545-74.472727 158.254545-158.254546-65.163636-158.254545-158.254545-158.254545z" fill="#EC407A" /></svg>