<?xml version="1.0" standalone="no"?><!DOCTYPE svg PUBLIC "-//W3C//DTD SVG 1.1//EN" "http://www.w3.org/Graphics/SVG/1.1/DTD/svg11.dtd"><svg class="icon" width="200px" height="200.00px" viewBox="0 0 1024 1024" version="1.1" xmlns="http://www.w3.org/2000/svg"><path d="M194.1 597.1c3.9-0.4 7.9-1 11.8-1.7 0.8-0.1 1.7-0.2 2.5-0.3 1.8-0.4 3.5-0.9 5.3-1.3 7.5-1.8 14.9-4 21.9-6.9v256.9h552.9V586.9c7 2.8 14.4 5.1 21.9 6.9 1.8 0.4 3.5 0.9 5.3 1.3 0.8 0.1 1.7 0.2 2.5 0.3 3.9 0.7 7.8 1.4 11.8 1.7 4.5 0.5 9.2 0.7 13.8 0.7 9.4 0 18.7-1 27.6-2.8v288.7c0 23.7-18.6 42.9-41.5 42.9H194.1c-22.9 0-41.5-19.2-41.5-42.9V595c9 1.7 18.2 2.8 27.6 2.8 4.7 0 9.4-0.3 13.9-0.7z m622-413.9H207.9c-22.9 0-41.5-19.2-41.5-42.9s18.6-42.9 41.5-42.9H816c22.9 0 41.5 19.2 41.5 42.9 0 23.6-18.5 42.9-41.4 42.9z m138.2 257.3c0 63.2-49.5 114.4-110.6 114.4-61.1 0-110.6-51.2-110.6-114.4 0 63.2-49.5 114.4-110.6 114.4-61.1 0-110.6-51.2-110.6-114.4 0 63.2-49.5 114.4-110.6 114.4-61.1 0-110.6-51.2-110.6-114.4 0 63.2-49.5 114.4-110.6 114.4-61.1 0-110.6-51.2-110.6-114.4l78-214.5h729.1l77.7 214.5z" fill="#EF5350" /></svg>