<?xml version="1.0" standalone="no"?><!DOCTYPE svg PUBLIC "-//W3C//DTD SVG 1.1//EN" "http://www.w3.org/Graphics/SVG/1.1/DTD/svg11.dtd"><svg class="icon" width="200px" height="162.54px" viewBox="0 0 1260 1024" version="1.1" xmlns="http://www.w3.org/2000/svg"><path d="M1259.758671 77.666462a76.169846 76.169846 0 0 0-76.327385-76.327385H76.408517A75.776 75.776 0 0 0 0.002363 77.666462v102.163692h1259.756308V77.666462zM0.002363 243.475692v655.123693c0 42.220308 34.028308 76.248615 76.327385 76.248615h1106.471384a76.169846 76.169846 0 0 0 76.327385-76.248615V243.396923H0.002363z m417.398154 551.699693H344.223902l-126.03077-378.328616h68.68677l94.523076 299.480616h1.339077L479.706978 416.846769h67.505231l-129.890461 378.328616z m175.261538 0V416.846769h66.166154v378.328616h-66.166154z m445.833847-223.232c-3.150769 13.942154-9.452308 26.545231-18.904616 37.80923-9.452308 11.421538-22.055385 21.504-39.148308 29.065847-17.014154 7.561846-39.069538 11.342769-65.536 11.342769h-100.903384v145.014154h-66.166154V416.846769h166.439385c27.096615 0 48.521846 3.780923 65.536 11.342769 17.014154 7.640615 30.247385 17.723077 39.069538 29.065847 9.452308 11.342769 15.123692 24.576 18.904615 37.80923 3.780923 13.233231 5.041231 26.466462 5.041231 37.809231 0 11.342769-1.260308 25.206154-4.411077 39.069539z" fill="#FF7043" /><path d="M957.048517 483.643077a49.309538 49.309538 0 0 0-20.716308-10.003692 101.612308 101.612308 0 0 0-24.576-2.520616h-97.752615v124.849231h97.122461c7.561846 0 15.123692-1.260308 22.685539-3.150769a66.796308 66.796308 0 0 0 21.425231-10.082462 57.501538 57.501538 0 0 0 15.753846-18.904615 68.529231 68.529231 0 0 0 6.301538-29.696c0-12.603077-1.890462-22.685538-5.041231-30.877539a44.110769 44.110769 0 0 0-15.123692-19.534769z" fill="#FF7043" /></svg>