<?xml version="1.0" standalone="no"?><!DOCTYPE svg PUBLIC "-//W3C//DTD SVG 1.1//EN" "http://www.w3.org/Graphics/SVG/1.1/DTD/svg11.dtd"><svg class="icon" width="200px" height="200.00px" viewBox="0 0 1024 1024" version="1.1" xmlns="http://www.w3.org/2000/svg"><path d="M800.316521 351.97333C800.316521 192.813401 671.291936 63.785745 512.128937 63.785745c-159.158906 0-288.186562 129.027655-288.186562 288.186562 0 148.33642 112.078635 270.475178 256.166287 286.407032l0 97.842399L336.01487 736.221738c-8.841366 0-16.010649 7.166213-16.010649 16.010649l0 32.020274c0 8.841366 7.169283 16.010649 16.010649 16.010649L480.108662 800.263309l0 144.093792c0 8.841366 7.169283 16.010649 16.010649 16.010649l32.020274 0c8.841366 0 16.010649-7.169283 16.010649-16.010649L544.150234 800.263309l112.072495 0c8.844435 0 16.010649-7.169283 16.010649-16.010649l0-32.020274c0-8.844435-7.166213-16.010649-16.010649-16.010649l-112.072495 0 0-97.842399C688.239933 622.448508 800.316521 500.30975 800.316521 351.97333zM287.983947 351.97333c0-123.792421 100.352569-224.14499 224.14499-224.14499s224.14499 100.353592 224.14499 224.14499-100.352569 224.14499-224.14499 224.14499S287.983947 475.765751 287.983947 351.97333z" fill="#FF3366" /></svg>